<?xml version="1.0" encoding="utf-8" standalone="no"?>
<!DOCTYPE svg PUBLIC "-//W3C//DTD SVG 1.1//EN"
  "http://www.w3.org/Graphics/SVG/1.1/DTD/svg11.dtd">
<svg xmlns:xlink="http://www.w3.org/1999/xlink" width="576pt" height="360pt" viewBox="0 0 576 360" xmlns="http://www.w3.org/2000/svg" version="1.1">
 <metadata>
  <rdf:RDF xmlns:dc="http://purl.org/dc/elements/1.1/" xmlns:cc="http://creativecommons.org/ns#" xmlns:rdf="http://www.w3.org/1999/02/22-rdf-syntax-ns#">
   <cc:Work>
    <dc:type rdf:resource="http://purl.org/dc/dcmitype/StillImage"/>
    <dc:date>1980-01-01T00:00:00+00:00</dc:date>
    <dc:format>image/svg+xml</dc:format>
    <dc:creator>
     <cc:Agent>
      <dc:title>Matplotlib v3.9.2, https://matplotlib.org/</dc:title>
     </cc:Agent>
    </dc:creator>
   </cc:Work>
  </rdf:RDF>
 </metadata>
 <defs>
  <style type="text/css">*{stroke-linejoin: round; stroke-linecap: butt}</style>
 </defs>
 <g id="figure_1">
  <g id="patch_1">
   <path d="M 0 360 
L 576 360 
L 576 0 
L 0 0 
z
" style="fill: #ffffff"/>
  </g>
  <g id="axes_1">
   <g id="patch_2">
    <path d="M 50.015209 318.04 
L 565.2 318.04 
L 565.2 61.44 
L 50.015209 61.44 
z
" style="fill: #ffffff"/>
   </g>
   <g id="patch_3">
    <path d="M 73.4327 104003.722957 
L 117.2352 104003.722957 
L 117.2352 308.173447 
L 73.4327 308.173447 
z
" clip-path="url(#p0bd96f2037)" style="fill: #1a73e8"/>
   </g>
   <g id="patch_4">
    <path d="M 241.903854 104003.722957 
L 285.706354 104003.722957 
L 285.706354 308.173447 
L 241.903854 308.173447 
z
" clip-path="url(#p0bd96f2037)" style="fill: #1a73e8"/>
   </g>
   <g id="patch_5">
    <path d="M 410.375009 104003.722957 
L 454.177509 104003.722957 
L 454.177509 167.046446 
L 410.375009 167.046446 
z
" clip-path="url(#p0bd96f2037)" style="fill: #1a73e8"/>
   </g>
   <g id="patch_6">
    <path d="M 117.2352 104003.722957 
L 161.0377 104003.722957 
L 161.0377 294.126587 
L 117.2352 294.126587 
z
" clip-path="url(#p0bd96f2037)" style="fill: #f9ab00"/>
   </g>
   <g id="patch_7">
    <path d="M 285.706354 104003.722957 
L 329.508855 104003.722957 
L 329.508855 294.126587 
L 285.706354 294.126587 
z
" clip-path="url(#p0bd96f2037)" style="fill: #f9ab00"/>
   </g>
   <g id="patch_8">
    <path d="M 454.177509 104003.722957 
L 497.980009 104003.722957 
L 497.980009 120.137982 
L 454.177509 120.137982 
z
" clip-path="url(#p0bd96f2037)" style="fill: #f9ab00"/>
   </g>
   <g id="patch_9">
    <path d="M 161.0377 104003.722957 
L 204.8402 104003.722957 
L 204.8402 214.665157 
L 161.0377 214.665157 
z
" clip-path="url(#p0bd96f2037)" style="fill: #d93025"/>
   </g>
   <g id="patch_10">
    <path d="M 329.508855 104003.722957 
L 373.311355 104003.722957 
L 373.311355 212.649961 
L 329.508855 212.649961 
z
" clip-path="url(#p0bd96f2037)" style="fill: #d93025"/>
   </g>
   <g id="patch_11">
    <path d="M 497.980009 104003.722957 
L 541.78251 104003.722957 
L 541.78251 110.842377 
L 497.980009 110.842377 
z
" clip-path="url(#p0bd96f2037)" style="fill: #d93025"/>
   </g>
   <g id="matplotlib.axis_1">
    <g id="xtick_1">
     <g id="line2d_1">
      <defs>
       <path id="m1dcb259188" d="M 0 0 
L 0 3.5 
" style="stroke: #000000; stroke-width: 0.8"/>
      </defs>
      <g>
       <use xlink:href="#m1dcb259188" x="139.13645" y="318.04" style="stroke: #000000; stroke-width: 0.8"/>
      </g>
     </g>
     <g id="text_1">
      <!-- Spin -->
      <g transform="translate(128.2302 332.638438) scale(0.1 -0.1)">
       <defs>
        <path id="DejaVuSans-53" d="M 3425 4513 
L 3425 3897 
Q 3066 4069 2747 4153 
Q 2428 4238 2131 4238 
Q 1616 4238 1336 4038 
Q 1056 3838 1056 3469 
Q 1056 3159 1242 3001 
Q 1428 2844 1947 2747 
L 2328 2669 
Q 3034 2534 3370 2195 
Q 3706 1856 3706 1288 
Q 3706 609 3251 259 
Q 2797 -91 1919 -91 
Q 1588 -91 1214 -16 
Q 841 59 441 206 
L 441 856 
Q 825 641 1194 531 
Q 1563 422 1919 422 
Q 2459 422 2753 634 
Q 3047 847 3047 1241 
Q 3047 1584 2836 1778 
Q 2625 1972 2144 2069 
L 1759 2144 
Q 1053 2284 737 2584 
Q 422 2884 422 3419 
Q 422 4038 858 4394 
Q 1294 4750 2059 4750 
Q 2388 4750 2728 4690 
Q 3069 4631 3425 4513 
z
" transform="scale(0.015625)"/>
        <path id="DejaVuSans-70" d="M 1159 525 
L 1159 -1331 
L 581 -1331 
L 581 3500 
L 1159 3500 
L 1159 2969 
Q 1341 3281 1617 3432 
Q 1894 3584 2278 3584 
Q 2916 3584 3314 3078 
Q 3713 2572 3713 1747 
Q 3713 922 3314 415 
Q 2916 -91 2278 -91 
Q 1894 -91 1617 61 
Q 1341 213 1159 525 
z
M 3116 1747 
Q 3116 2381 2855 2742 
Q 2594 3103 2138 3103 
Q 1681 3103 1420 2742 
Q 1159 2381 1159 1747 
Q 1159 1113 1420 752 
Q 1681 391 2138 391 
Q 2594 391 2855 752 
Q 3116 1113 3116 1747 
z
" transform="scale(0.015625)"/>
        <path id="DejaVuSans-69" d="M 603 3500 
L 1178 3500 
L 1178 0 
L 603 0 
L 603 3500 
z
M 603 4863 
L 1178 4863 
L 1178 4134 
L 603 4134 
L 603 4863 
z
" transform="scale(0.015625)"/>
        <path id="DejaVuSans-6e" d="M 3513 2113 
L 3513 0 
L 2938 0 
L 2938 2094 
Q 2938 2591 2744 2837 
Q 2550 3084 2163 3084 
Q 1697 3084 1428 2787 
Q 1159 2491 1159 1978 
L 1159 0 
L 581 0 
L 581 3500 
L 1159 3500 
L 1159 2956 
Q 1366 3272 1645 3428 
Q 1925 3584 2291 3584 
Q 2894 3584 3203 3211 
Q 3513 2838 3513 2113 
z
" transform="scale(0.015625)"/>
       </defs>
       <use xlink:href="#DejaVuSans-53"/>
       <use xlink:href="#DejaVuSans-70" x="63.476562"/>
       <use xlink:href="#DejaVuSans-69" x="126.953125"/>
       <use xlink:href="#DejaVuSans-6e" x="154.736328"/>
      </g>
     </g>
    </g>
    <g id="xtick_2">
     <g id="line2d_2">
      <g>
       <use xlink:href="#m1dcb259188" x="307.607605" y="318.04" style="stroke: #000000; stroke-width: 0.8"/>
      </g>
     </g>
     <g id="text_2">
      <!-- SpinThenYield -->
      <g transform="translate(272.331823 332.638438) scale(0.1 -0.1)">
       <defs>
        <path id="DejaVuSans-54" d="M -19 4666 
L 3928 4666 
L 3928 4134 
L 2272 4134 
L 2272 0 
L 1638 0 
L 1638 4134 
L -19 4134 
L -19 4666 
z
" transform="scale(0.015625)"/>
        <path id="DejaVuSans-68" d="M 3513 2113 
L 3513 0 
L 2938 0 
L 2938 2094 
Q 2938 2591 2744 2837 
Q 2550 3084 2163 3084 
Q 1697 3084 1428 2787 
Q 1159 2491 1159 1978 
L 1159 0 
L 581 0 
L 581 4863 
L 1159 4863 
L 1159 2956 
Q 1366 3272 1645 3428 
Q 1925 3584 2291 3584 
Q 2894 3584 3203 3211 
Q 3513 2838 3513 2113 
z
" transform="scale(0.015625)"/>
        <path id="DejaVuSans-65" d="M 3597 1894 
L 3597 1613 
L 953 1613 
Q 991 1019 1311 708 
Q 1631 397 2203 397 
Q 2534 397 2845 478 
Q 3156 559 3463 722 
L 3463 178 
Q 3153 47 2828 -22 
Q 2503 -91 2169 -91 
Q 1331 -91 842 396 
Q 353 884 353 1716 
Q 353 2575 817 3079 
Q 1281 3584 2069 3584 
Q 2775 3584 3186 3129 
Q 3597 2675 3597 1894 
z
M 3022 2063 
Q 3016 2534 2758 2815 
Q 2500 3097 2075 3097 
Q 1594 3097 1305 2825 
Q 1016 2553 972 2059 
L 3022 2063 
z
" transform="scale(0.015625)"/>
        <path id="DejaVuSans-59" d="M -13 4666 
L 666 4666 
L 1959 2747 
L 3244 4666 
L 3922 4666 
L 2272 2222 
L 2272 0 
L 1638 0 
L 1638 2222 
L -13 4666 
z
" transform="scale(0.015625)"/>
        <path id="DejaVuSans-6c" d="M 603 4863 
L 1178 4863 
L 1178 0 
L 603 0 
L 603 4863 
z
" transform="scale(0.015625)"/>
        <path id="DejaVuSans-64" d="M 2906 2969 
L 2906 4863 
L 3481 4863 
L 3481 0 
L 2906 0 
L 2906 525 
Q 2725 213 2448 61 
Q 2172 -91 1784 -91 
Q 1150 -91 751 415 
Q 353 922 353 1747 
Q 353 2572 751 3078 
Q 1150 3584 1784 3584 
Q 2172 3584 2448 3432 
Q 2725 3281 2906 2969 
z
M 947 1747 
Q 947 1113 1208 752 
Q 1469 391 1925 391 
Q 2381 391 2643 752 
Q 2906 1113 2906 1747 
Q 2906 2381 2643 2742 
Q 2381 3103 1925 3103 
Q 1469 3103 1208 2742 
Q 947 2381 947 1747 
z
" transform="scale(0.015625)"/>
       </defs>
       <use xlink:href="#DejaVuSans-53"/>
       <use xlink:href="#DejaVuSans-70" x="63.476562"/>
       <use xlink:href="#DejaVuSans-69" x="126.953125"/>
       <use xlink:href="#DejaVuSans-6e" x="154.736328"/>
       <use xlink:href="#DejaVuSans-54" x="218.115234"/>
       <use xlink:href="#DejaVuSans-68" x="279.199219"/>
       <use xlink:href="#DejaVuSans-65" x="342.578125"/>
       <use xlink:href="#DejaVuSans-6e" x="404.101562"/>
       <use xlink:href="#DejaVuSans-59" x="467.480469"/>
       <use xlink:href="#DejaVuSans-69" x="524.939453"/>
       <use xlink:href="#DejaVuSans-65" x="552.722656"/>
       <use xlink:href="#DejaVuSans-6c" x="614.246094"/>
       <use xlink:href="#DejaVuSans-64" x="642.029297"/>
      </g>
     </g>
    </g>
    <g id="xtick_3">
     <g id="line2d_3">
      <g>
       <use xlink:href="#m1dcb259188" x="476.078759" y="318.04" style="stroke: #000000; stroke-width: 0.8"/>
      </g>
     </g>
     <g id="text_3">
      <!-- Futex -->
      <g transform="translate(462.400634 332.638438) scale(0.1 -0.1)">
       <defs>
        <path id="DejaVuSans-46" d="M 628 4666 
L 3309 4666 
L 3309 4134 
L 1259 4134 
L 1259 2759 
L 3109 2759 
L 3109 2228 
L 1259 2228 
L 1259 0 
L 628 0 
L 628 4666 
z
" transform="scale(0.015625)"/>
        <path id="DejaVuSans-75" d="M 544 1381 
L 544 3500 
L 1119 3500 
L 1119 1403 
Q 1119 906 1312 657 
Q 1506 409 1894 409 
Q 2359 409 2629 706 
Q 2900 1003 2900 1516 
L 2900 3500 
L 3475 3500 
L 3475 0 
L 2900 0 
L 2900 538 
Q 2691 219 2414 64 
Q 2138 -91 1772 -91 
Q 1169 -91 856 284 
Q 544 659 544 1381 
z
M 1991 3584 
L 1991 3584 
z
" transform="scale(0.015625)"/>
        <path id="DejaVuSans-74" d="M 1172 4494 
L 1172 3500 
L 2356 3500 
L 2356 3053 
L 1172 3053 
L 1172 1153 
Q 1172 725 1289 603 
Q 1406 481 1766 481 
L 2356 481 
L 2356 0 
L 1766 0 
Q 1100 0 847 248 
Q 594 497 594 1153 
L 594 3053 
L 172 3053 
L 172 3500 
L 594 3500 
L 594 4494 
L 1172 4494 
z
" transform="scale(0.015625)"/>
        <path id="DejaVuSans-78" d="M 3513 3500 
L 2247 1797 
L 3578 0 
L 2900 0 
L 1881 1375 
L 863 0 
L 184 0 
L 1544 1831 
L 300 3500 
L 978 3500 
L 1906 2253 
L 2834 3500 
L 3513 3500 
z
" transform="scale(0.015625)"/>
       </defs>
       <use xlink:href="#DejaVuSans-46"/>
       <use xlink:href="#DejaVuSans-75" x="52.019531"/>
       <use xlink:href="#DejaVuSans-74" x="115.398438"/>
       <use xlink:href="#DejaVuSans-65" x="154.607422"/>
       <use xlink:href="#DejaVuSans-78" x="214.380859"/>
      </g>
     </g>
    </g>
    <g id="text_4">
     <!-- wait strategy (DESIGN §6 tier) -->
     <g transform="translate(232.556823 346.316563) scale(0.1 -0.1)">
      <defs>
       <path id="DejaVuSans-77" d="M 269 3500 
L 844 3500 
L 1563 769 
L 2278 3500 
L 2956 3500 
L 3675 769 
L 4391 3500 
L 4966 3500 
L 4050 0 
L 3372 0 
L 2619 2869 
L 1863 0 
L 1184 0 
L 269 3500 
z
" transform="scale(0.015625)"/>
       <path id="DejaVuSans-61" d="M 2194 1759 
Q 1497 1759 1228 1600 
Q 959 1441 959 1056 
Q 959 750 1161 570 
Q 1363 391 1709 391 
Q 2188 391 2477 730 
Q 2766 1069 2766 1631 
L 2766 1759 
L 2194 1759 
z
M 3341 1997 
L 3341 0 
L 2766 0 
L 2766 531 
Q 2569 213 2275 61 
Q 1981 -91 1556 -91 
Q 1019 -91 701 211 
Q 384 513 384 1019 
Q 384 1609 779 1909 
Q 1175 2209 1959 2209 
L 2766 2209 
L 2766 2266 
Q 2766 2663 2505 2880 
Q 2244 3097 1772 3097 
Q 1472 3097 1187 3025 
Q 903 2953 641 2809 
L 641 3341 
Q 956 3463 1253 3523 
Q 1550 3584 1831 3584 
Q 2591 3584 2966 3190 
Q 3341 2797 3341 1997 
z
" transform="scale(0.015625)"/>
       <path id="DejaVuSans-20" transform="scale(0.015625)"/>
       <path id="DejaVuSans-73" d="M 2834 3397 
L 2834 2853 
Q 2591 2978 2328 3040 
Q 2066 3103 1784 3103 
Q 1356 3103 1142 2972 
Q 928 2841 928 2578 
Q 928 2378 1081 2264 
Q 1234 2150 1697 2047 
L 1894 2003 
Q 2506 1872 2764 1633 
Q 3022 1394 3022 966 
Q 3022 478 2636 193 
Q 2250 -91 1575 -91 
Q 1294 -91 989 -36 
Q 684 19 347 128 
L 347 722 
Q 666 556 975 473 
Q 1284 391 1588 391 
Q 1994 391 2212 530 
Q 2431 669 2431 922 
Q 2431 1156 2273 1281 
Q 2116 1406 1581 1522 
L 1381 1569 
Q 847 1681 609 1914 
Q 372 2147 372 2553 
Q 372 3047 722 3315 
Q 1072 3584 1716 3584 
Q 2034 3584 2315 3537 
Q 2597 3491 2834 3397 
z
" transform="scale(0.015625)"/>
       <path id="DejaVuSans-72" d="M 2631 2963 
Q 2534 3019 2420 3045 
Q 2306 3072 2169 3072 
Q 1681 3072 1420 2755 
Q 1159 2438 1159 1844 
L 1159 0 
L 581 0 
L 581 3500 
L 1159 3500 
L 1159 2956 
Q 1341 3275 1631 3429 
Q 1922 3584 2338 3584 
Q 2397 3584 2469 3576 
Q 2541 3569 2628 3553 
L 2631 2963 
z
" transform="scale(0.015625)"/>
       <path id="DejaVuSans-67" d="M 2906 1791 
Q 2906 2416 2648 2759 
Q 2391 3103 1925 3103 
Q 1463 3103 1205 2759 
Q 947 2416 947 1791 
Q 947 1169 1205 825 
Q 1463 481 1925 481 
Q 2391 481 2648 825 
Q 2906 1169 2906 1791 
z
M 3481 434 
Q 3481 -459 3084 -895 
Q 2688 -1331 1869 -1331 
Q 1566 -1331 1297 -1286 
Q 1028 -1241 775 -1147 
L 775 -588 
Q 1028 -725 1275 -790 
Q 1522 -856 1778 -856 
Q 2344 -856 2625 -561 
Q 2906 -266 2906 331 
L 2906 616 
Q 2728 306 2450 153 
Q 2172 0 1784 0 
Q 1141 0 747 490 
Q 353 981 353 1791 
Q 353 2603 747 3093 
Q 1141 3584 1784 3584 
Q 2172 3584 2450 3431 
Q 2728 3278 2906 2969 
L 2906 3500 
L 3481 3500 
L 3481 434 
z
" transform="scale(0.015625)"/>
       <path id="DejaVuSans-79" d="M 2059 -325 
Q 1816 -950 1584 -1140 
Q 1353 -1331 966 -1331 
L 506 -1331 
L 506 -850 
L 844 -850 
Q 1081 -850 1212 -737 
Q 1344 -625 1503 -206 
L 1606 56 
L 191 3500 
L 800 3500 
L 1894 763 
L 2988 3500 
L 3597 3500 
L 2059 -325 
z
" transform="scale(0.015625)"/>
       <path id="DejaVuSans-28" d="M 1984 4856 
Q 1566 4138 1362 3434 
Q 1159 2731 1159 2009 
Q 1159 1288 1364 580 
Q 1569 -128 1984 -844 
L 1484 -844 
Q 1016 -109 783 600 
Q 550 1309 550 2009 
Q 550 2706 781 3412 
Q 1013 4119 1484 4856 
L 1984 4856 
z
" transform="scale(0.015625)"/>
       <path id="DejaVuSans-44" d="M 1259 4147 
L 1259 519 
L 2022 519 
Q 2988 519 3436 956 
Q 3884 1394 3884 2338 
Q 3884 3275 3436 3711 
Q 2988 4147 2022 4147 
L 1259 4147 
z
M 628 4666 
L 1925 4666 
Q 3281 4666 3915 4102 
Q 4550 3538 4550 2338 
Q 4550 1131 3912 565 
Q 3275 0 1925 0 
L 628 0 
L 628 4666 
z
" transform="scale(0.015625)"/>
       <path id="DejaVuSans-45" d="M 628 4666 
L 3578 4666 
L 3578 4134 
L 1259 4134 
L 1259 2753 
L 3481 2753 
L 3481 2222 
L 1259 2222 
L 1259 531 
L 3634 531 
L 3634 0 
L 628 0 
L 628 4666 
z
" transform="scale(0.015625)"/>
       <path id="DejaVuSans-49" d="M 628 4666 
L 1259 4666 
L 1259 0 
L 628 0 
L 628 4666 
z
" transform="scale(0.015625)"/>
       <path id="DejaVuSans-47" d="M 3809 666 
L 3809 1919 
L 2778 1919 
L 2778 2438 
L 4434 2438 
L 4434 434 
Q 4069 175 3628 42 
Q 3188 -91 2688 -91 
Q 1594 -91 976 548 
Q 359 1188 359 2328 
Q 359 3472 976 4111 
Q 1594 4750 2688 4750 
Q 3144 4750 3555 4637 
Q 3966 4525 4313 4306 
L 4313 3634 
Q 3963 3931 3569 4081 
Q 3175 4231 2741 4231 
Q 1884 4231 1454 3753 
Q 1025 3275 1025 2328 
Q 1025 1384 1454 906 
Q 1884 428 2741 428 
Q 3075 428 3337 486 
Q 3600 544 3809 666 
z
" transform="scale(0.015625)"/>
       <path id="DejaVuSans-4e" d="M 628 4666 
L 1478 4666 
L 3547 763 
L 3547 4666 
L 4159 4666 
L 4159 0 
L 3309 0 
L 1241 3903 
L 1241 0 
L 628 0 
L 628 4666 
z
" transform="scale(0.015625)"/>
       <path id="DejaVuSans-a7" d="M 1184 2925 
Q 988 2781 891 2640 
Q 794 2500 794 2356 
Q 794 2119 1011 1911 
Q 1228 1703 2009 1281 
Q 2206 1422 2303 1564 
Q 2400 1706 2400 1850 
Q 2400 2084 2176 2296 
Q 1953 2509 1184 2925 
z
M 2591 4569 
L 2591 4056 
Q 2331 4178 2107 4239 
Q 1884 4300 1709 4300 
Q 1406 4300 1237 4175 
Q 1069 4050 1069 3828 
Q 1069 3547 1713 3188 
Q 1794 3141 1838 3116 
Q 2497 2744 2701 2503 
Q 2906 2263 2906 1947 
Q 2906 1666 2762 1447 
Q 2619 1228 2328 1063 
Q 2522 900 2611 729 
Q 2700 559 2700 359 
Q 2700 -84 2381 -346 
Q 2063 -609 1522 -609 
Q 1294 -609 1053 -564 
Q 813 -519 538 -428 
L 538 84 
Q 809 -38 1040 -98 
Q 1272 -159 1453 -159 
Q 1772 -159 1948 -28 
Q 2125 103 2125 341 
Q 2125 659 1434 1044 
L 1356 1088 
Q 688 1463 488 1702 
Q 288 1941 288 2259 
Q 288 2544 433 2767 
Q 578 2991 863 3144 
Q 678 3281 586 3456 
Q 494 3631 494 3847 
Q 494 4253 806 4501 
Q 1119 4750 1638 4750 
Q 1866 4750 2105 4704 
Q 2344 4659 2591 4569 
z
" transform="scale(0.015625)"/>
       <path id="DejaVuSans-36" d="M 2113 2584 
Q 1688 2584 1439 2293 
Q 1191 2003 1191 1497 
Q 1191 994 1439 701 
Q 1688 409 2113 409 
Q 2538 409 2786 701 
Q 3034 994 3034 1497 
Q 3034 2003 2786 2293 
Q 2538 2584 2113 2584 
z
M 3366 4563 
L 3366 3988 
Q 3128 4100 2886 4159 
Q 2644 4219 2406 4219 
Q 1781 4219 1451 3797 
Q 1122 3375 1075 2522 
Q 1259 2794 1537 2939 
Q 1816 3084 2150 3084 
Q 2853 3084 3261 2657 
Q 3669 2231 3669 1497 
Q 3669 778 3244 343 
Q 2819 -91 2113 -91 
Q 1303 -91 875 529 
Q 447 1150 447 2328 
Q 447 3434 972 4092 
Q 1497 4750 2381 4750 
Q 2619 4750 2861 4703 
Q 3103 4656 3366 4563 
z
" transform="scale(0.015625)"/>
       <path id="DejaVuSans-29" d="M 513 4856 
L 1013 4856 
Q 1481 4119 1714 3412 
Q 1947 2706 1947 2009 
Q 1947 1309 1714 600 
Q 1481 -109 1013 -844 
L 513 -844 
Q 928 -128 1133 580 
Q 1338 1288 1338 2009 
Q 1338 2731 1133 3434 
Q 928 4138 513 4856 
z
" transform="scale(0.015625)"/>
      </defs>
      <use xlink:href="#DejaVuSans-77"/>
      <use xlink:href="#DejaVuSans-61" x="81.787109"/>
      <use xlink:href="#DejaVuSans-69" x="143.066406"/>
      <use xlink:href="#DejaVuSans-74" x="170.849609"/>
      <use xlink:href="#DejaVuSans-20" x="210.058594"/>
      <use xlink:href="#DejaVuSans-73" x="241.845703"/>
      <use xlink:href="#DejaVuSans-74" x="293.945312"/>
      <use xlink:href="#DejaVuSans-72" x="333.154297"/>
      <use xlink:href="#DejaVuSans-61" x="374.267578"/>
      <use xlink:href="#DejaVuSans-74" x="435.546875"/>
      <use xlink:href="#DejaVuSans-65" x="474.755859"/>
      <use xlink:href="#DejaVuSans-67" x="536.279297"/>
      <use xlink:href="#DejaVuSans-79" x="599.755859"/>
      <use xlink:href="#DejaVuSans-20" x="658.935547"/>
      <use xlink:href="#DejaVuSans-28" x="690.722656"/>
      <use xlink:href="#DejaVuSans-44" x="729.736328"/>
      <use xlink:href="#DejaVuSans-45" x="806.738281"/>
      <use xlink:href="#DejaVuSans-53" x="869.921875"/>
      <use xlink:href="#DejaVuSans-49" x="933.398438"/>
      <use xlink:href="#DejaVuSans-47" x="962.890625"/>
      <use xlink:href="#DejaVuSans-4e" x="1040.380859"/>
      <use xlink:href="#DejaVuSans-20" x="1115.185547"/>
      <use xlink:href="#DejaVuSans-a7" x="1146.972656"/>
      <use xlink:href="#DejaVuSans-36" x="1196.972656"/>
      <use xlink:href="#DejaVuSans-20" x="1260.595703"/>
      <use xlink:href="#DejaVuSans-74" x="1292.382812"/>
      <use xlink:href="#DejaVuSans-69" x="1331.591797"/>
      <use xlink:href="#DejaVuSans-65" x="1359.375"/>
      <use xlink:href="#DejaVuSans-72" x="1420.898438"/>
      <use xlink:href="#DejaVuSans-29" x="1462.011719"/>
     </g>
    </g>
   </g>
   <g id="matplotlib.axis_2">
    <g id="ytick_1">
     <g id="line2d_4">
      <path d="M 50.015209 254.033219 
L 565.2 254.033219 
" clip-path="url(#p0bd96f2037)" style="fill: none; stroke: #b0b0b0; stroke-opacity: 0.3; stroke-width: 0.8; stroke-linecap: square"/>
     </g>
     <g id="line2d_5">
      <defs>
       <path id="md98e77fe49" d="M 0 0 
L -3.5 0 
" style="stroke: #000000; stroke-width: 0.8"/>
      </defs>
      <g>
       <use xlink:href="#md98e77fe49" x="50.015209" y="254.033219" style="stroke: #000000; stroke-width: 0.8"/>
      </g>
     </g>
     <g id="text_5">
      <!-- $\mathdefault{10^{2}}$ -->
      <g transform="translate(25.415209 257.832438) scale(0.1 -0.1)">
       <defs>
        <path id="DejaVuSans-31" d="M 794 531 
L 1825 531 
L 1825 4091 
L 703 3866 
L 703 4441 
L 1819 4666 
L 2450 4666 
L 2450 531 
L 3481 531 
L 3481 0 
L 794 0 
L 794 531 
z
" transform="scale(0.015625)"/>
        <path id="DejaVuSans-30" d="M 2034 4250 
Q 1547 4250 1301 3770 
Q 1056 3291 1056 2328 
Q 1056 1369 1301 889 
Q 1547 409 2034 409 
Q 2525 409 2770 889 
Q 3016 1369 3016 2328 
Q 3016 3291 2770 3770 
Q 2525 4250 2034 4250 
z
M 2034 4750 
Q 2819 4750 3233 4129 
Q 3647 3509 3647 2328 
Q 3647 1150 3233 529 
Q 2819 -91 2034 -91 
Q 1250 -91 836 529 
Q 422 1150 422 2328 
Q 422 3509 836 4129 
Q 1250 4750 2034 4750 
z
" transform="scale(0.015625)"/>
        <path id="DejaVuSans-32" d="M 1228 531 
L 3431 531 
L 3431 0 
L 469 0 
L 469 531 
Q 828 903 1448 1529 
Q 2069 2156 2228 2338 
Q 2531 2678 2651 2914 
Q 2772 3150 2772 3378 
Q 2772 3750 2511 3984 
Q 2250 4219 1831 4219 
Q 1534 4219 1204 4116 
Q 875 4013 500 3803 
L 500 4441 
Q 881 4594 1212 4672 
Q 1544 4750 1819 4750 
Q 2544 4750 2975 4387 
Q 3406 4025 3406 3419 
Q 3406 3131 3298 2873 
Q 3191 2616 2906 2266 
Q 2828 2175 2409 1742 
Q 1991 1309 1228 531 
z
" transform="scale(0.015625)"/>
       </defs>
       <use xlink:href="#DejaVuSans-31" transform="translate(0 0.765625)"/>
       <use xlink:href="#DejaVuSans-30" transform="translate(63.623047 0.765625)"/>
       <use xlink:href="#DejaVuSans-32" transform="translate(128.203125 39.046875) scale(0.7)"/>
      </g>
     </g>
    </g>
    <g id="ytick_2">
     <g id="line2d_6">
      <path d="M 50.015209 150.490615 
L 565.2 150.490615 
" clip-path="url(#p0bd96f2037)" style="fill: none; stroke: #b0b0b0; stroke-opacity: 0.3; stroke-width: 0.8; stroke-linecap: square"/>
     </g>
     <g id="line2d_7">
      <g>
       <use xlink:href="#md98e77fe49" x="50.015209" y="150.490615" style="stroke: #000000; stroke-width: 0.8"/>
      </g>
     </g>
     <g id="text_6">
      <!-- $\mathdefault{10^{3}}$ -->
      <g transform="translate(25.415209 154.289834) scale(0.1 -0.1)">
       <defs>
        <path id="DejaVuSans-33" d="M 2597 2516 
Q 3050 2419 3304 2112 
Q 3559 1806 3559 1356 
Q 3559 666 3084 287 
Q 2609 -91 1734 -91 
Q 1441 -91 1130 -33 
Q 819 25 488 141 
L 488 750 
Q 750 597 1062 519 
Q 1375 441 1716 441 
Q 2309 441 2620 675 
Q 2931 909 2931 1356 
Q 2931 1769 2642 2001 
Q 2353 2234 1838 2234 
L 1294 2234 
L 1294 2753 
L 1863 2753 
Q 2328 2753 2575 2939 
Q 2822 3125 2822 3475 
Q 2822 3834 2567 4026 
Q 2313 4219 1838 4219 
Q 1578 4219 1281 4162 
Q 984 4106 628 3988 
L 628 4550 
Q 988 4650 1302 4700 
Q 1616 4750 1894 4750 
Q 2613 4750 3031 4423 
Q 3450 4097 3450 3541 
Q 3450 3153 3228 2886 
Q 3006 2619 2597 2516 
z
" transform="scale(0.015625)"/>
       </defs>
       <use xlink:href="#DejaVuSans-31" transform="translate(0 0.765625)"/>
       <use xlink:href="#DejaVuSans-30" transform="translate(63.623047 0.765625)"/>
       <use xlink:href="#DejaVuSans-33" transform="translate(128.203125 39.046875) scale(0.7)"/>
      </g>
     </g>
    </g>
    <g id="ytick_3">
     <g id="line2d_8">
      <path d="M 50.015209 308.173447 
L 565.2 308.173447 
" clip-path="url(#p0bd96f2037)" style="fill: none; stroke: #b0b0b0; stroke-opacity: 0.3; stroke-width: 0.8; stroke-linecap: square"/>
     </g>
     <g id="line2d_9">
      <defs>
       <path id="m9143d3e26e" d="M 0 0 
L -2 0 
" style="stroke: #000000; stroke-width: 0.6"/>
      </defs>
      <g>
       <use xlink:href="#m9143d3e26e" x="50.015209" y="308.173447" style="stroke: #000000; stroke-width: 0.6"/>
      </g>
     </g>
    </g>
    <g id="ytick_4">
     <g id="line2d_10">
      <path d="M 50.015209 295.236964 
L 565.2 295.236964 
" clip-path="url(#p0bd96f2037)" style="fill: none; stroke: #b0b0b0; stroke-opacity: 0.3; stroke-width: 0.8; stroke-linecap: square"/>
     </g>
     <g id="line2d_11">
      <g>
       <use xlink:href="#m9143d3e26e" x="50.015209" y="295.236964" style="stroke: #000000; stroke-width: 0.6"/>
      </g>
     </g>
    </g>
    <g id="ytick_5">
     <g id="line2d_12">
      <path d="M 50.015209 285.202649 
L 565.2 285.202649 
" clip-path="url(#p0bd96f2037)" style="fill: none; stroke: #b0b0b0; stroke-opacity: 0.3; stroke-width: 0.8; stroke-linecap: square"/>
     </g>
     <g id="line2d_13">
      <g>
       <use xlink:href="#m9143d3e26e" x="50.015209" y="285.202649" style="stroke: #000000; stroke-width: 0.6"/>
      </g>
     </g>
    </g>
    <g id="ytick_6">
     <g id="line2d_14">
      <path d="M 50.015209 277.004017 
L 565.2 277.004017 
" clip-path="url(#p0bd96f2037)" style="fill: none; stroke: #b0b0b0; stroke-opacity: 0.3; stroke-width: 0.8; stroke-linecap: square"/>
     </g>
     <g id="line2d_15">
      <g>
       <use xlink:href="#m9143d3e26e" x="50.015209" y="277.004017" style="stroke: #000000; stroke-width: 0.6"/>
      </g>
     </g>
    </g>
    <g id="ytick_7">
     <g id="line2d_16">
      <path d="M 50.015209 270.072172 
L 565.2 270.072172 
" clip-path="url(#p0bd96f2037)" style="fill: none; stroke: #b0b0b0; stroke-opacity: 0.3; stroke-width: 0.8; stroke-linecap: square"/>
     </g>
     <g id="line2d_17">
      <g>
       <use xlink:href="#m9143d3e26e" x="50.015209" y="270.072172" style="stroke: #000000; stroke-width: 0.6"/>
      </g>
     </g>
    </g>
    <g id="ytick_8">
     <g id="line2d_18">
      <path d="M 50.015209 264.067535 
L 565.2 264.067535 
" clip-path="url(#p0bd96f2037)" style="fill: none; stroke: #b0b0b0; stroke-opacity: 0.3; stroke-width: 0.8; stroke-linecap: square"/>
     </g>
     <g id="line2d_19">
      <g>
       <use xlink:href="#m9143d3e26e" x="50.015209" y="264.067535" style="stroke: #000000; stroke-width: 0.6"/>
      </g>
     </g>
    </g>
    <g id="ytick_9">
     <g id="line2d_20">
      <path d="M 50.015209 258.771069 
L 565.2 258.771069 
" clip-path="url(#p0bd96f2037)" style="fill: none; stroke: #b0b0b0; stroke-opacity: 0.3; stroke-width: 0.8; stroke-linecap: square"/>
     </g>
     <g id="line2d_21">
      <g>
       <use xlink:href="#m9143d3e26e" x="50.015209" y="258.771069" style="stroke: #000000; stroke-width: 0.6"/>
      </g>
     </g>
    </g>
    <g id="ytick_10">
     <g id="line2d_22">
      <path d="M 50.015209 222.86379 
L 565.2 222.86379 
" clip-path="url(#p0bd96f2037)" style="fill: none; stroke: #b0b0b0; stroke-opacity: 0.3; stroke-width: 0.8; stroke-linecap: square"/>
     </g>
     <g id="line2d_23">
      <g>
       <use xlink:href="#m9143d3e26e" x="50.015209" y="222.86379" style="stroke: #000000; stroke-width: 0.6"/>
      </g>
     </g>
    </g>
    <g id="ytick_11">
     <g id="line2d_24">
      <path d="M 50.015209 204.630842 
L 565.2 204.630842 
" clip-path="url(#p0bd96f2037)" style="fill: none; stroke: #b0b0b0; stroke-opacity: 0.3; stroke-width: 0.8; stroke-linecap: square"/>
     </g>
     <g id="line2d_25">
      <g>
       <use xlink:href="#m9143d3e26e" x="50.015209" y="204.630842" style="stroke: #000000; stroke-width: 0.6"/>
      </g>
     </g>
    </g>
    <g id="ytick_12">
     <g id="line2d_26">
      <path d="M 50.015209 191.69436 
L 565.2 191.69436 
" clip-path="url(#p0bd96f2037)" style="fill: none; stroke: #b0b0b0; stroke-opacity: 0.3; stroke-width: 0.8; stroke-linecap: square"/>
     </g>
     <g id="line2d_27">
      <g>
       <use xlink:href="#m9143d3e26e" x="50.015209" y="191.69436" style="stroke: #000000; stroke-width: 0.6"/>
      </g>
     </g>
    </g>
    <g id="ytick_13">
     <g id="line2d_28">
      <path d="M 50.015209 181.660045 
L 565.2 181.660045 
" clip-path="url(#p0bd96f2037)" style="fill: none; stroke: #b0b0b0; stroke-opacity: 0.3; stroke-width: 0.8; stroke-linecap: square"/>
     </g>
     <g id="line2d_29">
      <g>
       <use xlink:href="#m9143d3e26e" x="50.015209" y="181.660045" style="stroke: #000000; stroke-width: 0.6"/>
      </g>
     </g>
    </g>
    <g id="ytick_14">
     <g id="line2d_30">
      <path d="M 50.015209 173.461412 
L 565.2 173.461412 
" clip-path="url(#p0bd96f2037)" style="fill: none; stroke: #b0b0b0; stroke-opacity: 0.3; stroke-width: 0.8; stroke-linecap: square"/>
     </g>
     <g id="line2d_31">
      <g>
       <use xlink:href="#m9143d3e26e" x="50.015209" y="173.461412" style="stroke: #000000; stroke-width: 0.6"/>
      </g>
     </g>
    </g>
    <g id="ytick_15">
     <g id="line2d_32">
      <path d="M 50.015209 166.529567 
L 565.2 166.529567 
" clip-path="url(#p0bd96f2037)" style="fill: none; stroke: #b0b0b0; stroke-opacity: 0.3; stroke-width: 0.8; stroke-linecap: square"/>
     </g>
     <g id="line2d_33">
      <g>
       <use xlink:href="#m9143d3e26e" x="50.015209" y="166.529567" style="stroke: #000000; stroke-width: 0.6"/>
      </g>
     </g>
    </g>
    <g id="ytick_16">
     <g id="line2d_34">
      <path d="M 50.015209 160.52493 
L 565.2 160.52493 
" clip-path="url(#p0bd96f2037)" style="fill: none; stroke: #b0b0b0; stroke-opacity: 0.3; stroke-width: 0.8; stroke-linecap: square"/>
     </g>
     <g id="line2d_35">
      <g>
       <use xlink:href="#m9143d3e26e" x="50.015209" y="160.52493" style="stroke: #000000; stroke-width: 0.6"/>
      </g>
     </g>
    </g>
    <g id="ytick_17">
     <g id="line2d_36">
      <path d="M 50.015209 155.228465 
L 565.2 155.228465 
" clip-path="url(#p0bd96f2037)" style="fill: none; stroke: #b0b0b0; stroke-opacity: 0.3; stroke-width: 0.8; stroke-linecap: square"/>
     </g>
     <g id="line2d_37">
      <g>
       <use xlink:href="#m9143d3e26e" x="50.015209" y="155.228465" style="stroke: #000000; stroke-width: 0.6"/>
      </g>
     </g>
    </g>
    <g id="ytick_18">
     <g id="line2d_38">
      <path d="M 50.015209 119.321185 
L 565.2 119.321185 
" clip-path="url(#p0bd96f2037)" style="fill: none; stroke: #b0b0b0; stroke-opacity: 0.3; stroke-width: 0.8; stroke-linecap: square"/>
     </g>
     <g id="line2d_39">
      <g>
       <use xlink:href="#m9143d3e26e" x="50.015209" y="119.321185" style="stroke: #000000; stroke-width: 0.6"/>
      </g>
     </g>
    </g>
    <g id="ytick_19">
     <g id="line2d_40">
      <path d="M 50.015209 101.088237 
L 565.2 101.088237 
" clip-path="url(#p0bd96f2037)" style="fill: none; stroke: #b0b0b0; stroke-opacity: 0.3; stroke-width: 0.8; stroke-linecap: square"/>
     </g>
     <g id="line2d_41">
      <g>
       <use xlink:href="#m9143d3e26e" x="50.015209" y="101.088237" style="stroke: #000000; stroke-width: 0.6"/>
      </g>
     </g>
    </g>
    <g id="ytick_20">
     <g id="line2d_42">
      <path d="M 50.015209 88.151755 
L 565.2 88.151755 
" clip-path="url(#p0bd96f2037)" style="fill: none; stroke: #b0b0b0; stroke-opacity: 0.3; stroke-width: 0.8; stroke-linecap: square"/>
     </g>
     <g id="line2d_43">
      <g>
       <use xlink:href="#m9143d3e26e" x="50.015209" y="88.151755" style="stroke: #000000; stroke-width: 0.6"/>
      </g>
     </g>
    </g>
    <g id="ytick_21">
     <g id="line2d_44">
      <path d="M 50.015209 78.11744 
L 565.2 78.11744 
" clip-path="url(#p0bd96f2037)" style="fill: none; stroke: #b0b0b0; stroke-opacity: 0.3; stroke-width: 0.8; stroke-linecap: square"/>
     </g>
     <g id="line2d_45">
      <g>
       <use xlink:href="#m9143d3e26e" x="50.015209" y="78.11744" style="stroke: #000000; stroke-width: 0.6"/>
      </g>
     </g>
    </g>
    <g id="ytick_22">
     <g id="line2d_46">
      <path d="M 50.015209 69.918808 
L 565.2 69.918808 
" clip-path="url(#p0bd96f2037)" style="fill: none; stroke: #b0b0b0; stroke-opacity: 0.3; stroke-width: 0.8; stroke-linecap: square"/>
     </g>
     <g id="line2d_47">
      <g>
       <use xlink:href="#m9143d3e26e" x="50.015209" y="69.918808" style="stroke: #000000; stroke-width: 0.6"/>
      </g>
     </g>
    </g>
    <g id="ytick_23">
     <g id="line2d_48">
      <path d="M 50.015209 62.986963 
L 565.2 62.986963 
" clip-path="url(#p0bd96f2037)" style="fill: none; stroke: #b0b0b0; stroke-opacity: 0.3; stroke-width: 0.8; stroke-linecap: square"/>
     </g>
     <g id="line2d_49">
      <g>
       <use xlink:href="#m9143d3e26e" x="50.015209" y="62.986963" style="stroke: #000000; stroke-width: 0.6"/>
      </g>
     </g>
    </g>
    <g id="text_7">
     <!-- publish → visible latency (ns, log scale) -->
     <g transform="translate(19.335522 287.6525) rotate(-90) scale(0.1 -0.1)">
      <defs>
       <path id="DejaVuSans-62" d="M 3116 1747 
Q 3116 2381 2855 2742 
Q 2594 3103 2138 3103 
Q 1681 3103 1420 2742 
Q 1159 2381 1159 1747 
Q 1159 1113 1420 752 
Q 1681 391 2138 391 
Q 2594 391 2855 752 
Q 3116 1113 3116 1747 
z
M 1159 2969 
Q 1341 3281 1617 3432 
Q 1894 3584 2278 3584 
Q 2916 3584 3314 3078 
Q 3713 2572 3713 1747 
Q 3713 922 3314 415 
Q 2916 -91 2278 -91 
Q 1894 -91 1617 61 
Q 1341 213 1159 525 
L 1159 0 
L 581 0 
L 581 4863 
L 1159 4863 
L 1159 2969 
z
" transform="scale(0.015625)"/>
       <path id="DejaVuSans-2192" d="M 5050 2147 
L 5050 1866 
L 3822 638 
L 3447 1013 
L 4175 1741 
L 366 1741 
L 366 2272 
L 4175 2272 
L 3447 3000 
L 3822 3375 
L 5050 2147 
z
" transform="scale(0.015625)"/>
       <path id="DejaVuSans-76" d="M 191 3500 
L 800 3500 
L 1894 563 
L 2988 3500 
L 3597 3500 
L 2284 0 
L 1503 0 
L 191 3500 
z
" transform="scale(0.015625)"/>
       <path id="DejaVuSans-63" d="M 3122 3366 
L 3122 2828 
Q 2878 2963 2633 3030 
Q 2388 3097 2138 3097 
Q 1578 3097 1268 2742 
Q 959 2388 959 1747 
Q 959 1106 1268 751 
Q 1578 397 2138 397 
Q 2388 397 2633 464 
Q 2878 531 3122 666 
L 3122 134 
Q 2881 22 2623 -34 
Q 2366 -91 2075 -91 
Q 1284 -91 818 406 
Q 353 903 353 1747 
Q 353 2603 823 3093 
Q 1294 3584 2113 3584 
Q 2378 3584 2631 3529 
Q 2884 3475 3122 3366 
z
" transform="scale(0.015625)"/>
       <path id="DejaVuSans-2c" d="M 750 794 
L 1409 794 
L 1409 256 
L 897 -744 
L 494 -744 
L 750 256 
L 750 794 
z
" transform="scale(0.015625)"/>
       <path id="DejaVuSans-6f" d="M 1959 3097 
Q 1497 3097 1228 2736 
Q 959 2375 959 1747 
Q 959 1119 1226 758 
Q 1494 397 1959 397 
Q 2419 397 2687 759 
Q 2956 1122 2956 1747 
Q 2956 2369 2687 2733 
Q 2419 3097 1959 3097 
z
M 1959 3584 
Q 2709 3584 3137 3096 
Q 3566 2609 3566 1747 
Q 3566 888 3137 398 
Q 2709 -91 1959 -91 
Q 1206 -91 779 398 
Q 353 888 353 1747 
Q 353 2609 779 3096 
Q 1206 3584 1959 3584 
z
" transform="scale(0.015625)"/>
      </defs>
      <use xlink:href="#DejaVuSans-70"/>
      <use xlink:href="#DejaVuSans-75" x="63.476562"/>
      <use xlink:href="#DejaVuSans-62" x="126.855469"/>
      <use xlink:href="#DejaVuSans-6c" x="190.332031"/>
      <use xlink:href="#DejaVuSans-69" x="218.115234"/>
      <use xlink:href="#DejaVuSans-73" x="245.898438"/>
      <use xlink:href="#DejaVuSans-68" x="297.998047"/>
      <use xlink:href="#DejaVuSans-20" x="361.376953"/>
      <use xlink:href="#DejaVuSans-2192" x="393.164062"/>
      <use xlink:href="#DejaVuSans-20" x="476.953125"/>
      <use xlink:href="#DejaVuSans-76" x="508.740234"/>
      <use xlink:href="#DejaVuSans-69" x="567.919922"/>
      <use xlink:href="#DejaVuSans-73" x="595.703125"/>
      <use xlink:href="#DejaVuSans-69" x="647.802734"/>
      <use xlink:href="#DejaVuSans-62" x="675.585938"/>
      <use xlink:href="#DejaVuSans-6c" x="739.0625"/>
      <use xlink:href="#DejaVuSans-65" x="766.845703"/>
      <use xlink:href="#DejaVuSans-20" x="828.369141"/>
      <use xlink:href="#DejaVuSans-6c" x="860.15625"/>
      <use xlink:href="#DejaVuSans-61" x="887.939453"/>
      <use xlink:href="#DejaVuSans-74" x="949.21875"/>
      <use xlink:href="#DejaVuSans-65" x="988.427734"/>
      <use xlink:href="#DejaVuSans-6e" x="1049.951172"/>
      <use xlink:href="#DejaVuSans-63" x="1113.330078"/>
      <use xlink:href="#DejaVuSans-79" x="1168.310547"/>
      <use xlink:href="#DejaVuSans-20" x="1227.490234"/>
      <use xlink:href="#DejaVuSans-28" x="1259.277344"/>
      <use xlink:href="#DejaVuSans-6e" x="1298.291016"/>
      <use xlink:href="#DejaVuSans-73" x="1361.669922"/>
      <use xlink:href="#DejaVuSans-2c" x="1413.769531"/>
      <use xlink:href="#DejaVuSans-20" x="1445.556641"/>
      <use xlink:href="#DejaVuSans-6c" x="1477.34375"/>
      <use xlink:href="#DejaVuSans-6f" x="1505.126953"/>
      <use xlink:href="#DejaVuSans-67" x="1566.308594"/>
      <use xlink:href="#DejaVuSans-20" x="1629.785156"/>
      <use xlink:href="#DejaVuSans-73" x="1661.572266"/>
      <use xlink:href="#DejaVuSans-63" x="1713.671875"/>
      <use xlink:href="#DejaVuSans-61" x="1768.652344"/>
      <use xlink:href="#DejaVuSans-6c" x="1829.931641"/>
      <use xlink:href="#DejaVuSans-65" x="1857.714844"/>
      <use xlink:href="#DejaVuSans-29" x="1919.238281"/>
     </g>
    </g>
   </g>
   <g id="patch_12">
    <path d="M 50.015209 318.04 
L 50.015209 61.44 
" style="fill: none; stroke: #000000; stroke-width: 0.8; stroke-linejoin: miter; stroke-linecap: square"/>
   </g>
   <g id="patch_13">
    <path d="M 565.2 318.04 
L 565.2 61.44 
" style="fill: none; stroke: #000000; stroke-width: 0.8; stroke-linejoin: miter; stroke-linecap: square"/>
   </g>
   <g id="patch_14">
    <path d="M 50.015209 318.04 
L 565.2 318.04 
" style="fill: none; stroke: #000000; stroke-width: 0.8; stroke-linejoin: miter; stroke-linecap: square"/>
   </g>
   <g id="patch_15">
    <path d="M 50.015209 61.44 
L 565.2 61.44 
" style="fill: none; stroke: #000000; stroke-width: 0.8; stroke-linejoin: miter; stroke-linecap: square"/>
   </g>
   <g id="text_8">
    <!-- 30 -->
    <g transform="translate(90.24395 304.315701) scale(0.08 -0.08)">
     <use xlink:href="#DejaVuSans-33"/>
     <use xlink:href="#DejaVuSans-30" x="63.623047"/>
    </g>
   </g>
   <g id="text_9">
    <!-- 30 -->
    <g transform="translate(258.715104 304.315701) scale(0.08 -0.08)">
     <use xlink:href="#DejaVuSans-33"/>
     <use xlink:href="#DejaVuSans-30" x="63.623047"/>
    </g>
   </g>
   <g id="text_10">
    <!-- 692 -->
    <g transform="translate(424.641259 163.188701) scale(0.08 -0.08)">
     <defs>
      <path id="DejaVuSans-39" d="M 703 97 
L 703 672 
Q 941 559 1184 500 
Q 1428 441 1663 441 
Q 2288 441 2617 861 
Q 2947 1281 2994 2138 
Q 2813 1869 2534 1725 
Q 2256 1581 1919 1581 
Q 1219 1581 811 2004 
Q 403 2428 403 3163 
Q 403 3881 828 4315 
Q 1253 4750 1959 4750 
Q 2769 4750 3195 4129 
Q 3622 3509 3622 2328 
Q 3622 1225 3098 567 
Q 2575 -91 1691 -91 
Q 1453 -91 1209 -44 
Q 966 3 703 97 
z
M 1959 2075 
Q 2384 2075 2632 2365 
Q 2881 2656 2881 3163 
Q 2881 3666 2632 3958 
Q 2384 4250 1959 4250 
Q 1534 4250 1286 3958 
Q 1038 3666 1038 3163 
Q 1038 2656 1286 2365 
Q 1534 2075 1959 2075 
z
" transform="scale(0.015625)"/>
     </defs>
     <use xlink:href="#DejaVuSans-36"/>
     <use xlink:href="#DejaVuSans-39" x="63.623047"/>
     <use xlink:href="#DejaVuSans-32" x="127.246094"/>
    </g>
   </g>
   <g id="text_11">
    <!-- 41 -->
    <g transform="translate(134.04645 290.268842) scale(0.08 -0.08)">
     <defs>
      <path id="DejaVuSans-34" d="M 2419 4116 
L 825 1625 
L 2419 1625 
L 2419 4116 
z
M 2253 4666 
L 3047 4666 
L 3047 1625 
L 3713 1625 
L 3713 1100 
L 3047 1100 
L 3047 0 
L 2419 0 
L 2419 1100 
L 313 1100 
L 313 1709 
L 2253 4666 
z
" transform="scale(0.015625)"/>
     </defs>
     <use xlink:href="#DejaVuSans-34"/>
     <use xlink:href="#DejaVuSans-31" x="63.623047"/>
    </g>
   </g>
   <g id="text_12">
    <!-- 41 -->
    <g transform="translate(302.517605 290.268842) scale(0.08 -0.08)">
     <use xlink:href="#DejaVuSans-34"/>
     <use xlink:href="#DejaVuSans-31" x="63.623047"/>
    </g>
   </g>
   <g id="text_13">
    <!-- 1964 -->
    <g transform="translate(465.898759 116.280237) scale(0.08 -0.08)">
     <use xlink:href="#DejaVuSans-31"/>
     <use xlink:href="#DejaVuSans-39" x="63.623047"/>
     <use xlink:href="#DejaVuSans-36" x="127.246094"/>
     <use xlink:href="#DejaVuSans-34" x="190.869141"/>
    </g>
   </g>
   <g id="text_14">
    <!-- 240 -->
    <g transform="translate(175.30395 210.807412) scale(0.08 -0.08)">
     <use xlink:href="#DejaVuSans-32"/>
     <use xlink:href="#DejaVuSans-34" x="63.623047"/>
     <use xlink:href="#DejaVuSans-30" x="127.246094"/>
    </g>
   </g>
   <g id="text_15">
    <!-- 251 -->
    <g transform="translate(343.775105 208.792216) scale(0.08 -0.08)">
     <defs>
      <path id="DejaVuSans-35" d="M 691 4666 
L 3169 4666 
L 3169 4134 
L 1269 4134 
L 1269 2991 
Q 1406 3038 1543 3061 
Q 1681 3084 1819 3084 
Q 2600 3084 3056 2656 
Q 3513 2228 3513 1497 
Q 3513 744 3044 326 
Q 2575 -91 1722 -91 
Q 1428 -91 1123 -41 
Q 819 9 494 109 
L 494 744 
Q 775 591 1075 516 
Q 1375 441 1709 441 
Q 2250 441 2565 725 
Q 2881 1009 2881 1497 
Q 2881 1984 2565 2268 
Q 2250 2553 1709 2553 
Q 1456 2553 1204 2497 
Q 953 2441 691 2322 
L 691 4666 
z
" transform="scale(0.015625)"/>
     </defs>
     <use xlink:href="#DejaVuSans-32"/>
     <use xlink:href="#DejaVuSans-35" x="63.623047"/>
     <use xlink:href="#DejaVuSans-31" x="127.246094"/>
    </g>
   </g>
   <g id="text_16">
    <!-- 2415 -->
    <g transform="translate(509.701259 106.984632) scale(0.08 -0.08)">
     <use xlink:href="#DejaVuSans-32"/>
     <use xlink:href="#DejaVuSans-34" x="63.623047"/>
     <use xlink:href="#DejaVuSans-31" x="127.246094"/>
     <use xlink:href="#DejaVuSans-35" x="190.869141"/>
    </g>
   </g>
   <g id="text_17">
    <!-- shimmy latency tails per wait strategy -->
    <g transform="translate(192.11323 55.44) scale(0.12 -0.12)">
     <defs>
      <path id="DejaVuSans-6d" d="M 3328 2828 
Q 3544 3216 3844 3400 
Q 4144 3584 4550 3584 
Q 5097 3584 5394 3201 
Q 5691 2819 5691 2113 
L 5691 0 
L 5113 0 
L 5113 2094 
Q 5113 2597 4934 2840 
Q 4756 3084 4391 3084 
Q 3944 3084 3684 2787 
Q 3425 2491 3425 1978 
L 3425 0 
L 2847 0 
L 2847 2094 
Q 2847 2600 2669 2842 
Q 2491 3084 2119 3084 
Q 1678 3084 1418 2786 
Q 1159 2488 1159 1978 
L 1159 0 
L 581 0 
L 581 3500 
L 1159 3500 
L 1159 2956 
Q 1356 3278 1631 3431 
Q 1906 3584 2284 3584 
Q 2666 3584 2933 3390 
Q 3200 3197 3328 2828 
z
" transform="scale(0.015625)"/>
     </defs>
     <use xlink:href="#DejaVuSans-73"/>
     <use xlink:href="#DejaVuSans-68" x="52.099609"/>
     <use xlink:href="#DejaVuSans-69" x="115.478516"/>
     <use xlink:href="#DejaVuSans-6d" x="143.261719"/>
     <use xlink:href="#DejaVuSans-6d" x="240.673828"/>
     <use xlink:href="#DejaVuSans-79" x="338.085938"/>
     <use xlink:href="#DejaVuSans-20" x="397.265625"/>
     <use xlink:href="#DejaVuSans-6c" x="429.052734"/>
     <use xlink:href="#DejaVuSans-61" x="456.835938"/>
     <use xlink:href="#DejaVuSans-74" x="518.115234"/>
     <use xlink:href="#DejaVuSans-65" x="557.324219"/>
     <use xlink:href="#DejaVuSans-6e" x="618.847656"/>
     <use xlink:href="#DejaVuSans-63" x="682.226562"/>
     <use xlink:href="#DejaVuSans-79" x="737.207031"/>
     <use xlink:href="#DejaVuSans-20" x="796.386719"/>
     <use xlink:href="#DejaVuSans-74" x="828.173828"/>
     <use xlink:href="#DejaVuSans-61" x="867.382812"/>
     <use xlink:href="#DejaVuSans-69" x="928.662109"/>
     <use xlink:href="#DejaVuSans-6c" x="956.445312"/>
     <use xlink:href="#DejaVuSans-73" x="984.228516"/>
     <use xlink:href="#DejaVuSans-20" x="1036.328125"/>
     <use xlink:href="#DejaVuSans-70" x="1068.115234"/>
     <use xlink:href="#DejaVuSans-65" x="1131.591797"/>
     <use xlink:href="#DejaVuSans-72" x="1193.115234"/>
     <use xlink:href="#DejaVuSans-20" x="1234.228516"/>
     <use xlink:href="#DejaVuSans-77" x="1266.015625"/>
     <use xlink:href="#DejaVuSans-61" x="1347.802734"/>
     <use xlink:href="#DejaVuSans-69" x="1409.082031"/>
     <use xlink:href="#DejaVuSans-74" x="1436.865234"/>
     <use xlink:href="#DejaVuSans-20" x="1476.074219"/>
     <use xlink:href="#DejaVuSans-73" x="1507.861328"/>
     <use xlink:href="#DejaVuSans-74" x="1559.960938"/>
     <use xlink:href="#DejaVuSans-72" x="1599.169922"/>
     <use xlink:href="#DejaVuSans-61" x="1640.283203"/>
     <use xlink:href="#DejaVuSans-74" x="1701.5625"/>
     <use xlink:href="#DejaVuSans-65" x="1740.771484"/>
     <use xlink:href="#DejaVuSans-67" x="1802.294922"/>
     <use xlink:href="#DejaVuSans-79" x="1865.771484"/>
    </g>
   </g>
   <g id="legend_1">
    <g id="patch_16">
     <path d="M 57.015209 113.474375 
L 117.629272 113.474375 
Q 119.629272 113.474375 119.629272 111.474375 
L 119.629272 68.44 
Q 119.629272 66.44 117.629272 66.44 
L 57.015209 66.44 
Q 55.015209 66.44 55.015209 68.44 
L 55.015209 111.474375 
Q 55.015209 113.474375 57.015209 113.474375 
z
" style="fill: #ffffff; opacity: 0.95; stroke: #cccccc; stroke-linejoin: miter"/>
    </g>
    <g id="patch_17">
     <path d="M 59.015209 78.038437 
L 79.015209 78.038437 
L 79.015209 71.038437 
L 59.015209 71.038437 
z
" style="fill: #1a73e8"/>
    </g>
    <g id="text_18">
     <!-- p50 -->
     <g transform="translate(87.015209 78.038437) scale(0.1 -0.1)">
      <use xlink:href="#DejaVuSans-70"/>
      <use xlink:href="#DejaVuSans-35" x="63.476562"/>
      <use xlink:href="#DejaVuSans-30" x="127.099609"/>
     </g>
    </g>
    <g id="patch_18">
     <path d="M 59.015209 92.716563 
L 79.015209 92.716563 
L 79.015209 85.716563 
L 59.015209 85.716563 
z
" style="fill: #f9ab00"/>
    </g>
    <g id="text_19">
     <!-- p99 -->
     <g transform="translate(87.015209 92.716563) scale(0.1 -0.1)">
      <use xlink:href="#DejaVuSans-70"/>
      <use xlink:href="#DejaVuSans-39" x="63.476562"/>
      <use xlink:href="#DejaVuSans-39" x="127.099609"/>
     </g>
    </g>
    <g id="patch_19">
     <path d="M 59.015209 107.394687 
L 79.015209 107.394687 
L 79.015209 100.394687 
L 59.015209 100.394687 
z
" style="fill: #d93025"/>
    </g>
    <g id="text_20">
     <!-- p99.9 -->
     <g transform="translate(87.015209 107.394687) scale(0.1 -0.1)">
      <defs>
       <path id="DejaVuSans-2e" d="M 684 794 
L 1344 794 
L 1344 0 
L 684 0 
L 684 794 
z
" transform="scale(0.015625)"/>
      </defs>
      <use xlink:href="#DejaVuSans-70"/>
      <use xlink:href="#DejaVuSans-39" x="63.476562"/>
      <use xlink:href="#DejaVuSans-39" x="127.099609"/>
      <use xlink:href="#DejaVuSans-2e" x="190.722656"/>
      <use xlink:href="#DejaVuSans-39" x="222.509766"/>
     </g>
    </g>
   </g>
  </g>
  <g id="text_21">
   <!-- Backpressure, 64B, producer/consumer pinned to distinct cores, 300k samples -->
   <g style="fill: #333333" transform="translate(110.643047 30.238594) scale(0.09 -0.09)">
    <defs>
     <path id="DejaVuSans-42" d="M 1259 2228 
L 1259 519 
L 2272 519 
Q 2781 519 3026 730 
Q 3272 941 3272 1375 
Q 3272 1813 3026 2020 
Q 2781 2228 2272 2228 
L 1259 2228 
z
M 1259 4147 
L 1259 2741 
L 2194 2741 
Q 2656 2741 2882 2914 
Q 3109 3088 3109 3444 
Q 3109 3797 2882 3972 
Q 2656 4147 2194 4147 
L 1259 4147 
z
M 628 4666 
L 2241 4666 
Q 2963 4666 3353 4366 
Q 3744 4066 3744 3513 
Q 3744 3084 3544 2831 
Q 3344 2578 2956 2516 
Q 3422 2416 3680 2098 
Q 3938 1781 3938 1306 
Q 3938 681 3513 340 
Q 3088 0 2303 0 
L 628 0 
L 628 4666 
z
" transform="scale(0.015625)"/>
     <path id="DejaVuSans-6b" d="M 581 4863 
L 1159 4863 
L 1159 1991 
L 2875 3500 
L 3609 3500 
L 1753 1863 
L 3688 0 
L 2938 0 
L 1159 1709 
L 1159 0 
L 581 0 
L 581 4863 
z
" transform="scale(0.015625)"/>
     <path id="DejaVuSans-2f" d="M 1625 4666 
L 2156 4666 
L 531 -594 
L 0 -594 
L 1625 4666 
z
" transform="scale(0.015625)"/>
    </defs>
    <use xlink:href="#DejaVuSans-42"/>
    <use xlink:href="#DejaVuSans-61" x="68.603516"/>
    <use xlink:href="#DejaVuSans-63" x="129.882812"/>
    <use xlink:href="#DejaVuSans-6b" x="184.863281"/>
    <use xlink:href="#DejaVuSans-70" x="242.773438"/>
    <use xlink:href="#DejaVuSans-72" x="306.25"/>
    <use xlink:href="#DejaVuSans-65" x="345.113281"/>
    <use xlink:href="#DejaVuSans-73" x="406.636719"/>
    <use xlink:href="#DejaVuSans-73" x="458.736328"/>
    <use xlink:href="#DejaVuSans-75" x="510.835938"/>
    <use xlink:href="#DejaVuSans-72" x="574.214844"/>
    <use xlink:href="#DejaVuSans-65" x="613.078125"/>
    <use xlink:href="#DejaVuSans-2c" x="674.601562"/>
    <use xlink:href="#DejaVuSans-20" x="706.388672"/>
    <use xlink:href="#DejaVuSans-36" x="738.175781"/>
    <use xlink:href="#DejaVuSans-34" x="801.798828"/>
    <use xlink:href="#DejaVuSans-42" x="865.421875"/>
    <use xlink:href="#DejaVuSans-2c" x="934.025391"/>
    <use xlink:href="#DejaVuSans-20" x="965.8125"/>
    <use xlink:href="#DejaVuSans-70" x="997.599609"/>
    <use xlink:href="#DejaVuSans-72" x="1061.076172"/>
    <use xlink:href="#DejaVuSans-6f" x="1099.939453"/>
    <use xlink:href="#DejaVuSans-64" x="1161.121094"/>
    <use xlink:href="#DejaVuSans-75" x="1224.597656"/>
    <use xlink:href="#DejaVuSans-63" x="1287.976562"/>
    <use xlink:href="#DejaVuSans-65" x="1342.957031"/>
    <use xlink:href="#DejaVuSans-72" x="1404.480469"/>
    <use xlink:href="#DejaVuSans-2f" x="1445.59375"/>
    <use xlink:href="#DejaVuSans-63" x="1479.285156"/>
    <use xlink:href="#DejaVuSans-6f" x="1534.265625"/>
    <use xlink:href="#DejaVuSans-6e" x="1595.447266"/>
    <use xlink:href="#DejaVuSans-73" x="1658.826172"/>
    <use xlink:href="#DejaVuSans-75" x="1710.925781"/>
    <use xlink:href="#DejaVuSans-6d" x="1774.304688"/>
    <use xlink:href="#DejaVuSans-65" x="1871.716797"/>
    <use xlink:href="#DejaVuSans-72" x="1933.240234"/>
    <use xlink:href="#DejaVuSans-20" x="1974.353516"/>
    <use xlink:href="#DejaVuSans-70" x="2006.140625"/>
    <use xlink:href="#DejaVuSans-69" x="2069.617188"/>
    <use xlink:href="#DejaVuSans-6e" x="2097.400391"/>
    <use xlink:href="#DejaVuSans-6e" x="2160.779297"/>
    <use xlink:href="#DejaVuSans-65" x="2224.158203"/>
    <use xlink:href="#DejaVuSans-64" x="2285.681641"/>
    <use xlink:href="#DejaVuSans-20" x="2349.158203"/>
    <use xlink:href="#DejaVuSans-74" x="2380.945312"/>
    <use xlink:href="#DejaVuSans-6f" x="2420.154297"/>
    <use xlink:href="#DejaVuSans-20" x="2481.335938"/>
    <use xlink:href="#DejaVuSans-64" x="2513.123047"/>
    <use xlink:href="#DejaVuSans-69" x="2576.599609"/>
    <use xlink:href="#DejaVuSans-73" x="2604.382812"/>
    <use xlink:href="#DejaVuSans-74" x="2656.482422"/>
    <use xlink:href="#DejaVuSans-69" x="2695.691406"/>
    <use xlink:href="#DejaVuSans-6e" x="2723.474609"/>
    <use xlink:href="#DejaVuSans-63" x="2786.853516"/>
    <use xlink:href="#DejaVuSans-74" x="2841.833984"/>
    <use xlink:href="#DejaVuSans-20" x="2881.042969"/>
    <use xlink:href="#DejaVuSans-63" x="2912.830078"/>
    <use xlink:href="#DejaVuSans-6f" x="2967.810547"/>
    <use xlink:href="#DejaVuSans-72" x="3028.992188"/>
    <use xlink:href="#DejaVuSans-65" x="3067.855469"/>
    <use xlink:href="#DejaVuSans-73" x="3129.378906"/>
    <use xlink:href="#DejaVuSans-2c" x="3181.478516"/>
    <use xlink:href="#DejaVuSans-20" x="3213.265625"/>
    <use xlink:href="#DejaVuSans-33" x="3245.052734"/>
    <use xlink:href="#DejaVuSans-30" x="3308.675781"/>
    <use xlink:href="#DejaVuSans-30" x="3372.298828"/>
    <use xlink:href="#DejaVuSans-6b" x="3435.921875"/>
    <use xlink:href="#DejaVuSans-20" x="3493.832031"/>
    <use xlink:href="#DejaVuSans-73" x="3525.619141"/>
    <use xlink:href="#DejaVuSans-61" x="3577.71875"/>
    <use xlink:href="#DejaVuSans-6d" x="3638.998047"/>
    <use xlink:href="#DejaVuSans-70" x="3736.410156"/>
    <use xlink:href="#DejaVuSans-6c" x="3799.886719"/>
    <use xlink:href="#DejaVuSans-65" x="3827.669922"/>
    <use xlink:href="#DejaVuSans-73" x="3889.193359"/>
   </g>
  </g>
  <g id="text_22">
   <!-- bench host noisy=1 (governor=powersave, turbo on); p99.9 indicative, not authoritative — see shimmy-cvs -->
   <g style="fill: #d93025" transform="translate(57.843906 40.658672) scale(0.085 -0.085)">
    <defs>
     <path id="DejaVuSans-3d" d="M 678 2906 
L 4684 2906 
L 4684 2381 
L 678 2381 
L 678 2906 
z
M 678 1631 
L 4684 1631 
L 4684 1100 
L 678 1100 
L 678 1631 
z
" transform="scale(0.015625)"/>
     <path id="DejaVuSans-3b" d="M 750 3309 
L 1409 3309 
L 1409 2516 
L 750 2516 
L 750 3309 
z
M 750 794 
L 1409 794 
L 1409 256 
L 897 -744 
L 494 -744 
L 750 256 
L 750 794 
z
" transform="scale(0.015625)"/>
     <path id="DejaVuSans-2014" d="M 313 1978 
L 6088 1978 
L 6088 1528 
L 313 1528 
L 313 1978 
z
" transform="scale(0.015625)"/>
     <path id="DejaVuSans-2d" d="M 313 2009 
L 1997 2009 
L 1997 1497 
L 313 1497 
L 313 2009 
z
" transform="scale(0.015625)"/>
    </defs>
    <use xlink:href="#DejaVuSans-62"/>
    <use xlink:href="#DejaVuSans-65" x="63.476562"/>
    <use xlink:href="#DejaVuSans-6e" x="125"/>
    <use xlink:href="#DejaVuSans-63" x="188.378906"/>
    <use xlink:href="#DejaVuSans-68" x="243.359375"/>
    <use xlink:href="#DejaVuSans-20" x="306.738281"/>
    <use xlink:href="#DejaVuSans-68" x="338.525391"/>
    <use xlink:href="#DejaVuSans-6f" x="401.904297"/>
    <use xlink:href="#DejaVuSans-73" x="463.085938"/>
    <use xlink:href="#DejaVuSans-74" x="515.185547"/>
    <use xlink:href="#DejaVuSans-20" x="554.394531"/>
    <use xlink:href="#DejaVuSans-6e" x="586.181641"/>
    <use xlink:href="#DejaVuSans-6f" x="649.560547"/>
    <use xlink:href="#DejaVuSans-69" x="710.742188"/>
    <use xlink:href="#DejaVuSans-73" x="738.525391"/>
    <use xlink:href="#DejaVuSans-79" x="790.625"/>
    <use xlink:href="#DejaVuSans-3d" x="849.804688"/>
    <use xlink:href="#DejaVuSans-31" x="933.59375"/>
    <use xlink:href="#DejaVuSans-20" x="997.216797"/>
    <use xlink:href="#DejaVuSans-28" x="1029.003906"/>
    <use xlink:href="#DejaVuSans-67" x="1068.017578"/>
    <use xlink:href="#DejaVuSans-6f" x="1131.494141"/>
    <use xlink:href="#DejaVuSans-76" x="1192.675781"/>
    <use xlink:href="#DejaVuSans-65" x="1251.855469"/>
    <use xlink:href="#DejaVuSans-72" x="1313.378906"/>
    <use xlink:href="#DejaVuSans-6e" x="1352.742188"/>
    <use xlink:href="#DejaVuSans-6f" x="1416.121094"/>
    <use xlink:href="#DejaVuSans-72" x="1477.302734"/>
    <use xlink:href="#DejaVuSans-3d" x="1518.416016"/>
    <use xlink:href="#DejaVuSans-70" x="1602.205078"/>
    <use xlink:href="#DejaVuSans-6f" x="1665.681641"/>
    <use xlink:href="#DejaVuSans-77" x="1726.863281"/>
    <use xlink:href="#DejaVuSans-65" x="1808.650391"/>
    <use xlink:href="#DejaVuSans-72" x="1870.173828"/>
    <use xlink:href="#DejaVuSans-73" x="1911.287109"/>
    <use xlink:href="#DejaVuSans-61" x="1963.386719"/>
    <use xlink:href="#DejaVuSans-76" x="2024.666016"/>
    <use xlink:href="#DejaVuSans-65" x="2083.845703"/>
    <use xlink:href="#DejaVuSans-2c" x="2145.369141"/>
    <use xlink:href="#DejaVuSans-20" x="2177.15625"/>
    <use xlink:href="#DejaVuSans-74" x="2208.943359"/>
    <use xlink:href="#DejaVuSans-75" x="2248.152344"/>
    <use xlink:href="#DejaVuSans-72" x="2311.53125"/>
    <use xlink:href="#DejaVuSans-62" x="2352.644531"/>
    <use xlink:href="#DejaVuSans-6f" x="2416.121094"/>
    <use xlink:href="#DejaVuSans-20" x="2477.302734"/>
    <use xlink:href="#DejaVuSans-6f" x="2509.089844"/>
    <use xlink:href="#DejaVuSans-6e" x="2570.271484"/>
    <use xlink:href="#DejaVuSans-29" x="2633.650391"/>
    <use xlink:href="#DejaVuSans-3b" x="2672.664062"/>
    <use xlink:href="#DejaVuSans-20" x="2706.355469"/>
    <use xlink:href="#DejaVuSans-70" x="2738.142578"/>
    <use xlink:href="#DejaVuSans-39" x="2801.619141"/>
    <use xlink:href="#DejaVuSans-39" x="2865.242188"/>
    <use xlink:href="#DejaVuSans-2e" x="2928.865234"/>
    <use xlink:href="#DejaVuSans-39" x="2960.652344"/>
    <use xlink:href="#DejaVuSans-20" x="3024.275391"/>
    <use xlink:href="#DejaVuSans-69" x="3056.0625"/>
    <use xlink:href="#DejaVuSans-6e" x="3083.845703"/>
    <use xlink:href="#DejaVuSans-64" x="3147.224609"/>
    <use xlink:href="#DejaVuSans-69" x="3210.701172"/>
    <use xlink:href="#DejaVuSans-63" x="3238.484375"/>
    <use xlink:href="#DejaVuSans-61" x="3293.464844"/>
    <use xlink:href="#DejaVuSans-74" x="3354.744141"/>
    <use xlink:href="#DejaVuSans-69" x="3393.953125"/>
    <use xlink:href="#DejaVuSans-76" x="3421.736328"/>
    <use xlink:href="#DejaVuSans-65" x="3480.916016"/>
    <use xlink:href="#DejaVuSans-2c" x="3542.439453"/>
    <use xlink:href="#DejaVuSans-20" x="3574.226562"/>
    <use xlink:href="#DejaVuSans-6e" x="3606.013672"/>
    <use xlink:href="#DejaVuSans-6f" x="3669.392578"/>
    <use xlink:href="#DejaVuSans-74" x="3730.574219"/>
    <use xlink:href="#DejaVuSans-20" x="3769.783203"/>
    <use xlink:href="#DejaVuSans-61" x="3801.570312"/>
    <use xlink:href="#DejaVuSans-75" x="3862.849609"/>
    <use xlink:href="#DejaVuSans-74" x="3926.228516"/>
    <use xlink:href="#DejaVuSans-68" x="3965.4375"/>
    <use xlink:href="#DejaVuSans-6f" x="4028.816406"/>
    <use xlink:href="#DejaVuSans-72" x="4089.998047"/>
    <use xlink:href="#DejaVuSans-69" x="4131.111328"/>
    <use xlink:href="#DejaVuSans-74" x="4158.894531"/>
    <use xlink:href="#DejaVuSans-61" x="4198.103516"/>
    <use xlink:href="#DejaVuSans-74" x="4259.382812"/>
    <use xlink:href="#DejaVuSans-69" x="4298.591797"/>
    <use xlink:href="#DejaVuSans-76" x="4326.375"/>
    <use xlink:href="#DejaVuSans-65" x="4385.554688"/>
    <use xlink:href="#DejaVuSans-20" x="4447.078125"/>
    <use xlink:href="#DejaVuSans-2014" x="4478.865234"/>
    <use xlink:href="#DejaVuSans-20" x="4578.865234"/>
    <use xlink:href="#DejaVuSans-73" x="4610.652344"/>
    <use xlink:href="#DejaVuSans-65" x="4662.751953"/>
    <use xlink:href="#DejaVuSans-65" x="4724.275391"/>
    <use xlink:href="#DejaVuSans-20" x="4785.798828"/>
    <use xlink:href="#DejaVuSans-73" x="4817.585938"/>
    <use xlink:href="#DejaVuSans-68" x="4869.685547"/>
    <use xlink:href="#DejaVuSans-69" x="4933.064453"/>
    <use xlink:href="#DejaVuSans-6d" x="4960.847656"/>
    <use xlink:href="#DejaVuSans-6d" x="5058.259766"/>
    <use xlink:href="#DejaVuSans-79" x="5155.671875"/>
    <use xlink:href="#DejaVuSans-2d" x="5213.101562"/>
    <use xlink:href="#DejaVuSans-63" x="5249.185547"/>
    <use xlink:href="#DejaVuSans-76" x="5304.166016"/>
    <use xlink:href="#DejaVuSans-73" x="5363.345703"/>
   </g>
  </g>
 </g>
 <defs>
  <clipPath id="p0bd96f2037">
   <rect x="50.015209" y="61.44" width="515.184791" height="256.6"/>
  </clipPath>
 </defs>
</svg>
