<?xml version="1.0" encoding="utf-8" standalone="no"?>
<!DOCTYPE svg PUBLIC "-//W3C//DTD SVG 1.1//EN"
  "http://www.w3.org/Graphics/SVG/1.1/DTD/svg11.dtd">
<svg xmlns:xlink="http://www.w3.org/1999/xlink" width="576pt" height="360pt" viewBox="0 0 576 360" xmlns="http://www.w3.org/2000/svg" version="1.1">
 <metadata>
  <rdf:RDF xmlns:dc="http://purl.org/dc/elements/1.1/" xmlns:cc="http://creativecommons.org/ns#" xmlns:rdf="http://www.w3.org/1999/02/22-rdf-syntax-ns#">
   <cc:Work>
    <dc:type rdf:resource="http://purl.org/dc/dcmitype/StillImage"/>
    <dc:date>1980-01-01T00:00:00+00:00</dc:date>
    <dc:format>image/svg+xml</dc:format>
    <dc:creator>
     <cc:Agent>
      <dc:title>Matplotlib v3.9.2, https://matplotlib.org/</dc:title>
     </cc:Agent>
    </dc:creator>
   </cc:Work>
  </rdf:RDF>
 </metadata>
 <defs>
  <style type="text/css">*{stroke-linejoin: round; stroke-linecap: butt}</style>
 </defs>
 <g id="figure_1">
  <g id="patch_1">
   <path d="M 0 360 
L 576 360 
L 576 0 
L 0 0 
z
" style="fill: #ffffff"/>
  </g>
  <g id="axes_1">
   <g id="patch_2">
    <path d="M 50.015209 318.04 
L 565.2 318.04 
L 565.2 37.968 
L 50.015209 37.968 
z
" style="fill: #ffffff"/>
   </g>
   <g id="matplotlib.axis_1">
    <g id="xtick_1">
     <g id="line2d_1">
      <defs>
       <path id="m2812ecb7f2" d="M 0 0 
L 0 3.5 
" style="stroke: #000000; stroke-width: 0.8"/>
      </defs>
      <g>
       <use xlink:href="#m2812ecb7f2" x="73.4327" y="318.04" style="stroke: #000000; stroke-width: 0.8"/>
      </g>
     </g>
     <g id="text_1">
      <!-- 64 B -->
      <g transform="translate(62.050668 332.638438) scale(0.1 -0.1)">
       <defs>
        <path id="DejaVuSans-36" d="M 2113 2584 
Q 1688 2584 1439 2293 
Q 1191 2003 1191 1497 
Q 1191 994 1439 701 
Q 1688 409 2113 409 
Q 2538 409 2786 701 
Q 3034 994 3034 1497 
Q 3034 2003 2786 2293 
Q 2538 2584 2113 2584 
z
M 3366 4563 
L 3366 3988 
Q 3128 4100 2886 4159 
Q 2644 4219 2406 4219 
Q 1781 4219 1451 3797 
Q 1122 3375 1075 2522 
Q 1259 2794 1537 2939 
Q 1816 3084 2150 3084 
Q 2853 3084 3261 2657 
Q 3669 2231 3669 1497 
Q 3669 778 3244 343 
Q 2819 -91 2113 -91 
Q 1303 -91 875 529 
Q 447 1150 447 2328 
Q 447 3434 972 4092 
Q 1497 4750 2381 4750 
Q 2619 4750 2861 4703 
Q 3103 4656 3366 4563 
z
" transform="scale(0.015625)"/>
        <path id="DejaVuSans-34" d="M 2419 4116 
L 825 1625 
L 2419 1625 
L 2419 4116 
z
M 2253 4666 
L 3047 4666 
L 3047 1625 
L 3713 1625 
L 3713 1100 
L 3047 1100 
L 3047 0 
L 2419 0 
L 2419 1100 
L 313 1100 
L 313 1709 
L 2253 4666 
z
" transform="scale(0.015625)"/>
        <path id="DejaVuSans-20" transform="scale(0.015625)"/>
        <path id="DejaVuSans-42" d="M 1259 2228 
L 1259 519 
L 2272 519 
Q 2781 519 3026 730 
Q 3272 941 3272 1375 
Q 3272 1813 3026 2020 
Q 2781 2228 2272 2228 
L 1259 2228 
z
M 1259 4147 
L 1259 2741 
L 2194 2741 
Q 2656 2741 2882 2914 
Q 3109 3088 3109 3444 
Q 3109 3797 2882 3972 
Q 2656 4147 2194 4147 
L 1259 4147 
z
M 628 4666 
L 2241 4666 
Q 2963 4666 3353 4366 
Q 3744 4066 3744 3513 
Q 3744 3084 3544 2831 
Q 3344 2578 2956 2516 
Q 3422 2416 3680 2098 
Q 3938 1781 3938 1306 
Q 3938 681 3513 340 
Q 3088 0 2303 0 
L 628 0 
L 628 4666 
z
" transform="scale(0.015625)"/>
       </defs>
       <use xlink:href="#DejaVuSans-36"/>
       <use xlink:href="#DejaVuSans-34" x="63.623047"/>
       <use xlink:href="#DejaVuSans-20" x="127.246094"/>
       <use xlink:href="#DejaVuSans-42" x="159.033203"/>
      </g>
     </g>
    </g>
    <g id="xtick_2">
     <g id="line2d_2">
      <g>
       <use xlink:href="#m2812ecb7f2" x="229.549303" y="318.04" style="stroke: #000000; stroke-width: 0.8"/>
      </g>
     </g>
     <g id="text_2">
      <!-- 256 B -->
      <g transform="translate(214.986022 332.638438) scale(0.1 -0.1)">
       <defs>
        <path id="DejaVuSans-32" d="M 1228 531 
L 3431 531 
L 3431 0 
L 469 0 
L 469 531 
Q 828 903 1448 1529 
Q 2069 2156 2228 2338 
Q 2531 2678 2651 2914 
Q 2772 3150 2772 3378 
Q 2772 3750 2511 3984 
Q 2250 4219 1831 4219 
Q 1534 4219 1204 4116 
Q 875 4013 500 3803 
L 500 4441 
Q 881 4594 1212 4672 
Q 1544 4750 1819 4750 
Q 2544 4750 2975 4387 
Q 3406 4025 3406 3419 
Q 3406 3131 3298 2873 
Q 3191 2616 2906 2266 
Q 2828 2175 2409 1742 
Q 1991 1309 1228 531 
z
" transform="scale(0.015625)"/>
        <path id="DejaVuSans-35" d="M 691 4666 
L 3169 4666 
L 3169 4134 
L 1269 4134 
L 1269 2991 
Q 1406 3038 1543 3061 
Q 1681 3084 1819 3084 
Q 2600 3084 3056 2656 
Q 3513 2228 3513 1497 
Q 3513 744 3044 326 
Q 2575 -91 1722 -91 
Q 1428 -91 1123 -41 
Q 819 9 494 109 
L 494 744 
Q 775 591 1075 516 
Q 1375 441 1709 441 
Q 2250 441 2565 725 
Q 2881 1009 2881 1497 
Q 2881 1984 2565 2268 
Q 2250 2553 1709 2553 
Q 1456 2553 1204 2497 
Q 953 2441 691 2322 
L 691 4666 
z
" transform="scale(0.015625)"/>
       </defs>
       <use xlink:href="#DejaVuSans-32"/>
       <use xlink:href="#DejaVuSans-35" x="63.623047"/>
       <use xlink:href="#DejaVuSans-36" x="127.246094"/>
       <use xlink:href="#DejaVuSans-20" x="190.869141"/>
       <use xlink:href="#DejaVuSans-42" x="222.65625"/>
      </g>
     </g>
    </g>
    <g id="xtick_3">
     <g id="line2d_3">
      <g>
       <use xlink:href="#m2812ecb7f2" x="385.665906" y="318.04" style="stroke: #000000; stroke-width: 0.8"/>
      </g>
     </g>
     <g id="text_3">
      <!-- 1 KB -->
      <g transform="translate(374.186219 332.638438) scale(0.1 -0.1)">
       <defs>
        <path id="DejaVuSans-31" d="M 794 531 
L 1825 531 
L 1825 4091 
L 703 3866 
L 703 4441 
L 1819 4666 
L 2450 4666 
L 2450 531 
L 3481 531 
L 3481 0 
L 794 0 
L 794 531 
z
" transform="scale(0.015625)"/>
        <path id="DejaVuSans-4b" d="M 628 4666 
L 1259 4666 
L 1259 2694 
L 3353 4666 
L 4166 4666 
L 1850 2491 
L 4331 0 
L 3500 0 
L 1259 2247 
L 1259 0 
L 628 0 
L 628 4666 
z
" transform="scale(0.015625)"/>
       </defs>
       <use xlink:href="#DejaVuSans-31"/>
       <use xlink:href="#DejaVuSans-20" x="63.623047"/>
       <use xlink:href="#DejaVuSans-4b" x="95.410156"/>
       <use xlink:href="#DejaVuSans-42" x="160.986328"/>
      </g>
     </g>
    </g>
    <g id="xtick_4">
     <g id="line2d_4">
      <g>
       <use xlink:href="#m2812ecb7f2" x="541.78251" y="318.04" style="stroke: #000000; stroke-width: 0.8"/>
      </g>
     </g>
     <g id="text_4">
      <!-- 4 KB -->
      <g transform="translate(530.302822 332.638438) scale(0.1 -0.1)">
       <use xlink:href="#DejaVuSans-34"/>
       <use xlink:href="#DejaVuSans-20" x="63.623047"/>
       <use xlink:href="#DejaVuSans-4b" x="95.410156"/>
       <use xlink:href="#DejaVuSans-42" x="160.986328"/>
      </g>
     </g>
    </g>
    <g id="text_5">
     <!-- message / block size -->
     <g transform="translate(255.72323 346.316563) scale(0.1 -0.1)">
      <defs>
       <path id="DejaVuSans-6d" d="M 3328 2828 
Q 3544 3216 3844 3400 
Q 4144 3584 4550 3584 
Q 5097 3584 5394 3201 
Q 5691 2819 5691 2113 
L 5691 0 
L 5113 0 
L 5113 2094 
Q 5113 2597 4934 2840 
Q 4756 3084 4391 3084 
Q 3944 3084 3684 2787 
Q 3425 2491 3425 1978 
L 3425 0 
L 2847 0 
L 2847 2094 
Q 2847 2600 2669 2842 
Q 2491 3084 2119 3084 
Q 1678 3084 1418 2786 
Q 1159 2488 1159 1978 
L 1159 0 
L 581 0 
L 581 3500 
L 1159 3500 
L 1159 2956 
Q 1356 3278 1631 3431 
Q 1906 3584 2284 3584 
Q 2666 3584 2933 3390 
Q 3200 3197 3328 2828 
z
" transform="scale(0.015625)"/>
       <path id="DejaVuSans-65" d="M 3597 1894 
L 3597 1613 
L 953 1613 
Q 991 1019 1311 708 
Q 1631 397 2203 397 
Q 2534 397 2845 478 
Q 3156 559 3463 722 
L 3463 178 
Q 3153 47 2828 -22 
Q 2503 -91 2169 -91 
Q 1331 -91 842 396 
Q 353 884 353 1716 
Q 353 2575 817 3079 
Q 1281 3584 2069 3584 
Q 2775 3584 3186 3129 
Q 3597 2675 3597 1894 
z
M 3022 2063 
Q 3016 2534 2758 2815 
Q 2500 3097 2075 3097 
Q 1594 3097 1305 2825 
Q 1016 2553 972 2059 
L 3022 2063 
z
" transform="scale(0.015625)"/>
       <path id="DejaVuSans-73" d="M 2834 3397 
L 2834 2853 
Q 2591 2978 2328 3040 
Q 2066 3103 1784 3103 
Q 1356 3103 1142 2972 
Q 928 2841 928 2578 
Q 928 2378 1081 2264 
Q 1234 2150 1697 2047 
L 1894 2003 
Q 2506 1872 2764 1633 
Q 3022 1394 3022 966 
Q 3022 478 2636 193 
Q 2250 -91 1575 -91 
Q 1294 -91 989 -36 
Q 684 19 347 128 
L 347 722 
Q 666 556 975 473 
Q 1284 391 1588 391 
Q 1994 391 2212 530 
Q 2431 669 2431 922 
Q 2431 1156 2273 1281 
Q 2116 1406 1581 1522 
L 1381 1569 
Q 847 1681 609 1914 
Q 372 2147 372 2553 
Q 372 3047 722 3315 
Q 1072 3584 1716 3584 
Q 2034 3584 2315 3537 
Q 2597 3491 2834 3397 
z
" transform="scale(0.015625)"/>
       <path id="DejaVuSans-61" d="M 2194 1759 
Q 1497 1759 1228 1600 
Q 959 1441 959 1056 
Q 959 750 1161 570 
Q 1363 391 1709 391 
Q 2188 391 2477 730 
Q 2766 1069 2766 1631 
L 2766 1759 
L 2194 1759 
z
M 3341 1997 
L 3341 0 
L 2766 0 
L 2766 531 
Q 2569 213 2275 61 
Q 1981 -91 1556 -91 
Q 1019 -91 701 211 
Q 384 513 384 1019 
Q 384 1609 779 1909 
Q 1175 2209 1959 2209 
L 2766 2209 
L 2766 2266 
Q 2766 2663 2505 2880 
Q 2244 3097 1772 3097 
Q 1472 3097 1187 3025 
Q 903 2953 641 2809 
L 641 3341 
Q 956 3463 1253 3523 
Q 1550 3584 1831 3584 
Q 2591 3584 2966 3190 
Q 3341 2797 3341 1997 
z
" transform="scale(0.015625)"/>
       <path id="DejaVuSans-67" d="M 2906 1791 
Q 2906 2416 2648 2759 
Q 2391 3103 1925 3103 
Q 1463 3103 1205 2759 
Q 947 2416 947 1791 
Q 947 1169 1205 825 
Q 1463 481 1925 481 
Q 2391 481 2648 825 
Q 2906 1169 2906 1791 
z
M 3481 434 
Q 3481 -459 3084 -895 
Q 2688 -1331 1869 -1331 
Q 1566 -1331 1297 -1286 
Q 1028 -1241 775 -1147 
L 775 -588 
Q 1028 -725 1275 -790 
Q 1522 -856 1778 -856 
Q 2344 -856 2625 -561 
Q 2906 -266 2906 331 
L 2906 616 
Q 2728 306 2450 153 
Q 2172 0 1784 0 
Q 1141 0 747 490 
Q 353 981 353 1791 
Q 353 2603 747 3093 
Q 1141 3584 1784 3584 
Q 2172 3584 2450 3431 
Q 2728 3278 2906 2969 
L 2906 3500 
L 3481 3500 
L 3481 434 
z
" transform="scale(0.015625)"/>
       <path id="DejaVuSans-2f" d="M 1625 4666 
L 2156 4666 
L 531 -594 
L 0 -594 
L 1625 4666 
z
" transform="scale(0.015625)"/>
       <path id="DejaVuSans-62" d="M 3116 1747 
Q 3116 2381 2855 2742 
Q 2594 3103 2138 3103 
Q 1681 3103 1420 2742 
Q 1159 2381 1159 1747 
Q 1159 1113 1420 752 
Q 1681 391 2138 391 
Q 2594 391 2855 752 
Q 3116 1113 3116 1747 
z
M 1159 2969 
Q 1341 3281 1617 3432 
Q 1894 3584 2278 3584 
Q 2916 3584 3314 3078 
Q 3713 2572 3713 1747 
Q 3713 922 3314 415 
Q 2916 -91 2278 -91 
Q 1894 -91 1617 61 
Q 1341 213 1159 525 
L 1159 0 
L 581 0 
L 581 4863 
L 1159 4863 
L 1159 2969 
z
" transform="scale(0.015625)"/>
       <path id="DejaVuSans-6c" d="M 603 4863 
L 1178 4863 
L 1178 0 
L 603 0 
L 603 4863 
z
" transform="scale(0.015625)"/>
       <path id="DejaVuSans-6f" d="M 1959 3097 
Q 1497 3097 1228 2736 
Q 959 2375 959 1747 
Q 959 1119 1226 758 
Q 1494 397 1959 397 
Q 2419 397 2687 759 
Q 2956 1122 2956 1747 
Q 2956 2369 2687 2733 
Q 2419 3097 1959 3097 
z
M 1959 3584 
Q 2709 3584 3137 3096 
Q 3566 2609 3566 1747 
Q 3566 888 3137 398 
Q 2709 -91 1959 -91 
Q 1206 -91 779 398 
Q 353 888 353 1747 
Q 353 2609 779 3096 
Q 1206 3584 1959 3584 
z
" transform="scale(0.015625)"/>
       <path id="DejaVuSans-63" d="M 3122 3366 
L 3122 2828 
Q 2878 2963 2633 3030 
Q 2388 3097 2138 3097 
Q 1578 3097 1268 2742 
Q 959 2388 959 1747 
Q 959 1106 1268 751 
Q 1578 397 2138 397 
Q 2388 397 2633 464 
Q 2878 531 3122 666 
L 3122 134 
Q 2881 22 2623 -34 
Q 2366 -91 2075 -91 
Q 1284 -91 818 406 
Q 353 903 353 1747 
Q 353 2603 823 3093 
Q 1294 3584 2113 3584 
Q 2378 3584 2631 3529 
Q 2884 3475 3122 3366 
z
" transform="scale(0.015625)"/>
       <path id="DejaVuSans-6b" d="M 581 4863 
L 1159 4863 
L 1159 1991 
L 2875 3500 
L 3609 3500 
L 1753 1863 
L 3688 0 
L 2938 0 
L 1159 1709 
L 1159 0 
L 581 0 
L 581 4863 
z
" transform="scale(0.015625)"/>
       <path id="DejaVuSans-69" d="M 603 3500 
L 1178 3500 
L 1178 0 
L 603 0 
L 603 3500 
z
M 603 4863 
L 1178 4863 
L 1178 4134 
L 603 4134 
L 603 4863 
z
" transform="scale(0.015625)"/>
       <path id="DejaVuSans-7a" d="M 353 3500 
L 3084 3500 
L 3084 2975 
L 922 459 
L 3084 459 
L 3084 0 
L 275 0 
L 275 525 
L 2438 3041 
L 353 3041 
L 353 3500 
z
" transform="scale(0.015625)"/>
      </defs>
      <use xlink:href="#DejaVuSans-6d"/>
      <use xlink:href="#DejaVuSans-65" x="97.412109"/>
      <use xlink:href="#DejaVuSans-73" x="158.935547"/>
      <use xlink:href="#DejaVuSans-73" x="211.035156"/>
      <use xlink:href="#DejaVuSans-61" x="263.134766"/>
      <use xlink:href="#DejaVuSans-67" x="324.414062"/>
      <use xlink:href="#DejaVuSans-65" x="387.890625"/>
      <use xlink:href="#DejaVuSans-20" x="449.414062"/>
      <use xlink:href="#DejaVuSans-2f" x="481.201172"/>
      <use xlink:href="#DejaVuSans-20" x="514.892578"/>
      <use xlink:href="#DejaVuSans-62" x="546.679688"/>
      <use xlink:href="#DejaVuSans-6c" x="610.15625"/>
      <use xlink:href="#DejaVuSans-6f" x="637.939453"/>
      <use xlink:href="#DejaVuSans-63" x="699.121094"/>
      <use xlink:href="#DejaVuSans-6b" x="754.101562"/>
      <use xlink:href="#DejaVuSans-20" x="812.011719"/>
      <use xlink:href="#DejaVuSans-73" x="843.798828"/>
      <use xlink:href="#DejaVuSans-69" x="895.898438"/>
      <use xlink:href="#DejaVuSans-7a" x="923.681641"/>
      <use xlink:href="#DejaVuSans-65" x="976.171875"/>
     </g>
    </g>
   </g>
   <g id="matplotlib.axis_2">
    <g id="ytick_1">
     <g id="line2d_5">
      <path d="M 50.015209 305.309455 
L 565.2 305.309455 
" clip-path="url(#p2242d06859)" style="fill: none; stroke: #b0b0b0; stroke-opacity: 0.3; stroke-width: 0.8; stroke-linecap: square"/>
     </g>
     <g id="line2d_6">
      <defs>
       <path id="m78922cad22" d="M 0 0 
L -3.5 0 
" style="stroke: #000000; stroke-width: 0.8"/>
      </defs>
      <g>
       <use xlink:href="#m78922cad22" x="50.015209" y="305.309455" style="stroke: #000000; stroke-width: 0.8"/>
      </g>
     </g>
     <g id="text_6">
      <!-- $\mathdefault{10^{1}}$ -->
      <g transform="translate(25.415209 309.108673) scale(0.1 -0.1)">
       <defs>
        <path id="DejaVuSans-30" d="M 2034 4250 
Q 1547 4250 1301 3770 
Q 1056 3291 1056 2328 
Q 1056 1369 1301 889 
Q 1547 409 2034 409 
Q 2525 409 2770 889 
Q 3016 1369 3016 2328 
Q 3016 3291 2770 3770 
Q 2525 4250 2034 4250 
z
M 2034 4750 
Q 2819 4750 3233 4129 
Q 3647 3509 3647 2328 
Q 3647 1150 3233 529 
Q 2819 -91 2034 -91 
Q 1250 -91 836 529 
Q 422 1150 422 2328 
Q 422 3509 836 4129 
Q 1250 4750 2034 4750 
z
" transform="scale(0.015625)"/>
       </defs>
       <use xlink:href="#DejaVuSans-31" transform="translate(0 0.684375)"/>
       <use xlink:href="#DejaVuSans-30" transform="translate(63.623047 0.684375)"/>
       <use xlink:href="#DejaVuSans-31" transform="translate(128.203125 38.965625) scale(0.7)"/>
      </g>
     </g>
    </g>
    <g id="ytick_2">
     <g id="line2d_7">
      <path d="M 50.015209 180.522544 
L 565.2 180.522544 
" clip-path="url(#p2242d06859)" style="fill: none; stroke: #b0b0b0; stroke-opacity: 0.3; stroke-width: 0.8; stroke-linecap: square"/>
     </g>
     <g id="line2d_8">
      <g>
       <use xlink:href="#m78922cad22" x="50.015209" y="180.522544" style="stroke: #000000; stroke-width: 0.8"/>
      </g>
     </g>
     <g id="text_7">
      <!-- $\mathdefault{10^{2}}$ -->
      <g transform="translate(25.415209 184.321762) scale(0.1 -0.1)">
       <use xlink:href="#DejaVuSans-31" transform="translate(0 0.765625)"/>
       <use xlink:href="#DejaVuSans-30" transform="translate(63.623047 0.765625)"/>
       <use xlink:href="#DejaVuSans-32" transform="translate(128.203125 39.046875) scale(0.7)"/>
      </g>
     </g>
    </g>
    <g id="ytick_3">
     <g id="line2d_9">
      <path d="M 50.015209 55.735633 
L 565.2 55.735633 
" clip-path="url(#p2242d06859)" style="fill: none; stroke: #b0b0b0; stroke-opacity: 0.3; stroke-width: 0.8; stroke-linecap: square"/>
     </g>
     <g id="line2d_10">
      <g>
       <use xlink:href="#m78922cad22" x="50.015209" y="55.735633" style="stroke: #000000; stroke-width: 0.8"/>
      </g>
     </g>
     <g id="text_8">
      <!-- $\mathdefault{10^{3}}$ -->
      <g transform="translate(25.415209 59.534851) scale(0.1 -0.1)">
       <defs>
        <path id="DejaVuSans-33" d="M 2597 2516 
Q 3050 2419 3304 2112 
Q 3559 1806 3559 1356 
Q 3559 666 3084 287 
Q 2609 -91 1734 -91 
Q 1441 -91 1130 -33 
Q 819 25 488 141 
L 488 750 
Q 750 597 1062 519 
Q 1375 441 1716 441 
Q 2309 441 2620 675 
Q 2931 909 2931 1356 
Q 2931 1769 2642 2001 
Q 2353 2234 1838 2234 
L 1294 2234 
L 1294 2753 
L 1863 2753 
Q 2328 2753 2575 2939 
Q 2822 3125 2822 3475 
Q 2822 3834 2567 4026 
Q 2313 4219 1838 4219 
Q 1578 4219 1281 4162 
Q 984 4106 628 3988 
L 628 4550 
Q 988 4650 1302 4700 
Q 1616 4750 1894 4750 
Q 2613 4750 3031 4423 
Q 3450 4097 3450 3541 
Q 3450 3153 3228 2886 
Q 3006 2619 2597 2516 
z
" transform="scale(0.015625)"/>
       </defs>
       <use xlink:href="#DejaVuSans-31" transform="translate(0 0.765625)"/>
       <use xlink:href="#DejaVuSans-30" transform="translate(63.623047 0.765625)"/>
       <use xlink:href="#DejaVuSans-33" transform="translate(128.203125 39.046875) scale(0.7)"/>
      </g>
     </g>
    </g>
    <g id="ytick_4">
     <g id="line2d_11">
      <path d="M 50.015209 317.402556 
L 565.2 317.402556 
" clip-path="url(#p2242d06859)" style="fill: none; stroke: #b0b0b0; stroke-opacity: 0.3; stroke-width: 0.8; stroke-linecap: square"/>
     </g>
     <g id="line2d_12">
      <defs>
       <path id="m0d24cb1d1f" d="M 0 0 
L -2 0 
" style="stroke: #000000; stroke-width: 0.6"/>
      </defs>
      <g>
       <use xlink:href="#m0d24cb1d1f" x="50.015209" y="317.402556" style="stroke: #000000; stroke-width: 0.6"/>
      </g>
     </g>
    </g>
    <g id="ytick_5">
     <g id="line2d_13">
      <path d="M 50.015209 311.01939 
L 565.2 311.01939 
" clip-path="url(#p2242d06859)" style="fill: none; stroke: #b0b0b0; stroke-opacity: 0.3; stroke-width: 0.8; stroke-linecap: square"/>
     </g>
     <g id="line2d_14">
      <g>
       <use xlink:href="#m0d24cb1d1f" x="50.015209" y="311.01939" style="stroke: #000000; stroke-width: 0.6"/>
      </g>
     </g>
    </g>
    <g id="ytick_6">
     <g id="line2d_15">
      <path d="M 50.015209 267.744851 
L 565.2 267.744851 
" clip-path="url(#p2242d06859)" style="fill: none; stroke: #b0b0b0; stroke-opacity: 0.3; stroke-width: 0.8; stroke-linecap: square"/>
     </g>
     <g id="line2d_16">
      <g>
       <use xlink:href="#m0d24cb1d1f" x="50.015209" y="267.744851" style="stroke: #000000; stroke-width: 0.6"/>
      </g>
     </g>
    </g>
    <g id="ytick_7">
     <g id="line2d_17">
      <path d="M 50.015209 245.770967 
L 565.2 245.770967 
" clip-path="url(#p2242d06859)" style="fill: none; stroke: #b0b0b0; stroke-opacity: 0.3; stroke-width: 0.8; stroke-linecap: square"/>
     </g>
     <g id="line2d_18">
      <g>
       <use xlink:href="#m0d24cb1d1f" x="50.015209" y="245.770967" style="stroke: #000000; stroke-width: 0.6"/>
      </g>
     </g>
    </g>
    <g id="ytick_8">
     <g id="line2d_19">
      <path d="M 50.015209 230.180248 
L 565.2 230.180248 
" clip-path="url(#p2242d06859)" style="fill: none; stroke: #b0b0b0; stroke-opacity: 0.3; stroke-width: 0.8; stroke-linecap: square"/>
     </g>
     <g id="line2d_20">
      <g>
       <use xlink:href="#m0d24cb1d1f" x="50.015209" y="230.180248" style="stroke: #000000; stroke-width: 0.6"/>
      </g>
     </g>
    </g>
    <g id="ytick_9">
     <g id="line2d_21">
      <path d="M 50.015209 218.087147 
L 565.2 218.087147 
" clip-path="url(#p2242d06859)" style="fill: none; stroke: #b0b0b0; stroke-opacity: 0.3; stroke-width: 0.8; stroke-linecap: square"/>
     </g>
     <g id="line2d_22">
      <g>
       <use xlink:href="#m0d24cb1d1f" x="50.015209" y="218.087147" style="stroke: #000000; stroke-width: 0.6"/>
      </g>
     </g>
    </g>
    <g id="ytick_10">
     <g id="line2d_23">
      <path d="M 50.015209 208.206364 
L 565.2 208.206364 
" clip-path="url(#p2242d06859)" style="fill: none; stroke: #b0b0b0; stroke-opacity: 0.3; stroke-width: 0.8; stroke-linecap: square"/>
     </g>
     <g id="line2d_24">
      <g>
       <use xlink:href="#m0d24cb1d1f" x="50.015209" y="208.206364" style="stroke: #000000; stroke-width: 0.6"/>
      </g>
     </g>
    </g>
    <g id="ytick_11">
     <g id="line2d_25">
      <path d="M 50.015209 199.852281 
L 565.2 199.852281 
" clip-path="url(#p2242d06859)" style="fill: none; stroke: #b0b0b0; stroke-opacity: 0.3; stroke-width: 0.8; stroke-linecap: square"/>
     </g>
     <g id="line2d_26">
      <g>
       <use xlink:href="#m0d24cb1d1f" x="50.015209" y="199.852281" style="stroke: #000000; stroke-width: 0.6"/>
      </g>
     </g>
    </g>
    <g id="ytick_12">
     <g id="line2d_27">
      <path d="M 50.015209 192.615645 
L 565.2 192.615645 
" clip-path="url(#p2242d06859)" style="fill: none; stroke: #b0b0b0; stroke-opacity: 0.3; stroke-width: 0.8; stroke-linecap: square"/>
     </g>
     <g id="line2d_28">
      <g>
       <use xlink:href="#m0d24cb1d1f" x="50.015209" y="192.615645" style="stroke: #000000; stroke-width: 0.6"/>
      </g>
     </g>
    </g>
    <g id="ytick_13">
     <g id="line2d_29">
      <path d="M 50.015209 186.232479 
L 565.2 186.232479 
" clip-path="url(#p2242d06859)" style="fill: none; stroke: #b0b0b0; stroke-opacity: 0.3; stroke-width: 0.8; stroke-linecap: square"/>
     </g>
     <g id="line2d_30">
      <g>
       <use xlink:href="#m0d24cb1d1f" x="50.015209" y="186.232479" style="stroke: #000000; stroke-width: 0.6"/>
      </g>
     </g>
    </g>
    <g id="ytick_14">
     <g id="line2d_31">
      <path d="M 50.015209 142.95794 
L 565.2 142.95794 
" clip-path="url(#p2242d06859)" style="fill: none; stroke: #b0b0b0; stroke-opacity: 0.3; stroke-width: 0.8; stroke-linecap: square"/>
     </g>
     <g id="line2d_32">
      <g>
       <use xlink:href="#m0d24cb1d1f" x="50.015209" y="142.95794" style="stroke: #000000; stroke-width: 0.6"/>
      </g>
     </g>
    </g>
    <g id="ytick_15">
     <g id="line2d_33">
      <path d="M 50.015209 120.984056 
L 565.2 120.984056 
" clip-path="url(#p2242d06859)" style="fill: none; stroke: #b0b0b0; stroke-opacity: 0.3; stroke-width: 0.8; stroke-linecap: square"/>
     </g>
     <g id="line2d_34">
      <g>
       <use xlink:href="#m0d24cb1d1f" x="50.015209" y="120.984056" style="stroke: #000000; stroke-width: 0.6"/>
      </g>
     </g>
    </g>
    <g id="ytick_16">
     <g id="line2d_35">
      <path d="M 50.015209 105.393337 
L 565.2 105.393337 
" clip-path="url(#p2242d06859)" style="fill: none; stroke: #b0b0b0; stroke-opacity: 0.3; stroke-width: 0.8; stroke-linecap: square"/>
     </g>
     <g id="line2d_36">
      <g>
       <use xlink:href="#m0d24cb1d1f" x="50.015209" y="105.393337" style="stroke: #000000; stroke-width: 0.6"/>
      </g>
     </g>
    </g>
    <g id="ytick_17">
     <g id="line2d_37">
      <path d="M 50.015209 93.300236 
L 565.2 93.300236 
" clip-path="url(#p2242d06859)" style="fill: none; stroke: #b0b0b0; stroke-opacity: 0.3; stroke-width: 0.8; stroke-linecap: square"/>
     </g>
     <g id="line2d_38">
      <g>
       <use xlink:href="#m0d24cb1d1f" x="50.015209" y="93.300236" style="stroke: #000000; stroke-width: 0.6"/>
      </g>
     </g>
    </g>
    <g id="ytick_18">
     <g id="line2d_39">
      <path d="M 50.015209 83.419453 
L 565.2 83.419453 
" clip-path="url(#p2242d06859)" style="fill: none; stroke: #b0b0b0; stroke-opacity: 0.3; stroke-width: 0.8; stroke-linecap: square"/>
     </g>
     <g id="line2d_40">
      <g>
       <use xlink:href="#m0d24cb1d1f" x="50.015209" y="83.419453" style="stroke: #000000; stroke-width: 0.6"/>
      </g>
     </g>
    </g>
    <g id="ytick_19">
     <g id="line2d_41">
      <path d="M 50.015209 75.06537 
L 565.2 75.06537 
" clip-path="url(#p2242d06859)" style="fill: none; stroke: #b0b0b0; stroke-opacity: 0.3; stroke-width: 0.8; stroke-linecap: square"/>
     </g>
     <g id="line2d_42">
      <g>
       <use xlink:href="#m0d24cb1d1f" x="50.015209" y="75.06537" style="stroke: #000000; stroke-width: 0.6"/>
      </g>
     </g>
    </g>
    <g id="ytick_20">
     <g id="line2d_43">
      <path d="M 50.015209 67.828734 
L 565.2 67.828734 
" clip-path="url(#p2242d06859)" style="fill: none; stroke: #b0b0b0; stroke-opacity: 0.3; stroke-width: 0.8; stroke-linecap: square"/>
     </g>
     <g id="line2d_44">
      <g>
       <use xlink:href="#m0d24cb1d1f" x="50.015209" y="67.828734" style="stroke: #000000; stroke-width: 0.6"/>
      </g>
     </g>
    </g>
    <g id="ytick_21">
     <g id="line2d_45">
      <path d="M 50.015209 61.445569 
L 565.2 61.445569 
" clip-path="url(#p2242d06859)" style="fill: none; stroke: #b0b0b0; stroke-opacity: 0.3; stroke-width: 0.8; stroke-linecap: square"/>
     </g>
     <g id="line2d_46">
      <g>
       <use xlink:href="#m0d24cb1d1f" x="50.015209" y="61.445569" style="stroke: #000000; stroke-width: 0.6"/>
      </g>
     </g>
    </g>
    <g id="text_9">
     <!-- throughput (M msgs/sec, log scale) -->
     <g transform="translate(19.335522 265.986031) rotate(-90) scale(0.1 -0.1)">
      <defs>
       <path id="DejaVuSans-74" d="M 1172 4494 
L 1172 3500 
L 2356 3500 
L 2356 3053 
L 1172 3053 
L 1172 1153 
Q 1172 725 1289 603 
Q 1406 481 1766 481 
L 2356 481 
L 2356 0 
L 1766 0 
Q 1100 0 847 248 
Q 594 497 594 1153 
L 594 3053 
L 172 3053 
L 172 3500 
L 594 3500 
L 594 4494 
L 1172 4494 
z
" transform="scale(0.015625)"/>
       <path id="DejaVuSans-68" d="M 3513 2113 
L 3513 0 
L 2938 0 
L 2938 2094 
Q 2938 2591 2744 2837 
Q 2550 3084 2163 3084 
Q 1697 3084 1428 2787 
Q 1159 2491 1159 1978 
L 1159 0 
L 581 0 
L 581 4863 
L 1159 4863 
L 1159 2956 
Q 1366 3272 1645 3428 
Q 1925 3584 2291 3584 
Q 2894 3584 3203 3211 
Q 3513 2838 3513 2113 
z
" transform="scale(0.015625)"/>
       <path id="DejaVuSans-72" d="M 2631 2963 
Q 2534 3019 2420 3045 
Q 2306 3072 2169 3072 
Q 1681 3072 1420 2755 
Q 1159 2438 1159 1844 
L 1159 0 
L 581 0 
L 581 3500 
L 1159 3500 
L 1159 2956 
Q 1341 3275 1631 3429 
Q 1922 3584 2338 3584 
Q 2397 3584 2469 3576 
Q 2541 3569 2628 3553 
L 2631 2963 
z
" transform="scale(0.015625)"/>
       <path id="DejaVuSans-75" d="M 544 1381 
L 544 3500 
L 1119 3500 
L 1119 1403 
Q 1119 906 1312 657 
Q 1506 409 1894 409 
Q 2359 409 2629 706 
Q 2900 1003 2900 1516 
L 2900 3500 
L 3475 3500 
L 3475 0 
L 2900 0 
L 2900 538 
Q 2691 219 2414 64 
Q 2138 -91 1772 -91 
Q 1169 -91 856 284 
Q 544 659 544 1381 
z
M 1991 3584 
L 1991 3584 
z
" transform="scale(0.015625)"/>
       <path id="DejaVuSans-70" d="M 1159 525 
L 1159 -1331 
L 581 -1331 
L 581 3500 
L 1159 3500 
L 1159 2969 
Q 1341 3281 1617 3432 
Q 1894 3584 2278 3584 
Q 2916 3584 3314 3078 
Q 3713 2572 3713 1747 
Q 3713 922 3314 415 
Q 2916 -91 2278 -91 
Q 1894 -91 1617 61 
Q 1341 213 1159 525 
z
M 3116 1747 
Q 3116 2381 2855 2742 
Q 2594 3103 2138 3103 
Q 1681 3103 1420 2742 
Q 1159 2381 1159 1747 
Q 1159 1113 1420 752 
Q 1681 391 2138 391 
Q 2594 391 2855 752 
Q 3116 1113 3116 1747 
z
" transform="scale(0.015625)"/>
       <path id="DejaVuSans-28" d="M 1984 4856 
Q 1566 4138 1362 3434 
Q 1159 2731 1159 2009 
Q 1159 1288 1364 580 
Q 1569 -128 1984 -844 
L 1484 -844 
Q 1016 -109 783 600 
Q 550 1309 550 2009 
Q 550 2706 781 3412 
Q 1013 4119 1484 4856 
L 1984 4856 
z
" transform="scale(0.015625)"/>
       <path id="DejaVuSans-4d" d="M 628 4666 
L 1569 4666 
L 2759 1491 
L 3956 4666 
L 4897 4666 
L 4897 0 
L 4281 0 
L 4281 4097 
L 3078 897 
L 2444 897 
L 1241 4097 
L 1241 0 
L 628 0 
L 628 4666 
z
" transform="scale(0.015625)"/>
       <path id="DejaVuSans-2c" d="M 750 794 
L 1409 794 
L 1409 256 
L 897 -744 
L 494 -744 
L 750 256 
L 750 794 
z
" transform="scale(0.015625)"/>
       <path id="DejaVuSans-29" d="M 513 4856 
L 1013 4856 
Q 1481 4119 1714 3412 
Q 1947 2706 1947 2009 
Q 1947 1309 1714 600 
Q 1481 -109 1013 -844 
L 513 -844 
Q 928 -128 1133 580 
Q 1338 1288 1338 2009 
Q 1338 2731 1133 3434 
Q 928 4138 513 4856 
z
" transform="scale(0.015625)"/>
      </defs>
      <use xlink:href="#DejaVuSans-74"/>
      <use xlink:href="#DejaVuSans-68" x="39.208984"/>
      <use xlink:href="#DejaVuSans-72" x="102.587891"/>
      <use xlink:href="#DejaVuSans-6f" x="141.451172"/>
      <use xlink:href="#DejaVuSans-75" x="202.632812"/>
      <use xlink:href="#DejaVuSans-67" x="266.011719"/>
      <use xlink:href="#DejaVuSans-68" x="329.488281"/>
      <use xlink:href="#DejaVuSans-70" x="392.867188"/>
      <use xlink:href="#DejaVuSans-75" x="456.34375"/>
      <use xlink:href="#DejaVuSans-74" x="519.722656"/>
      <use xlink:href="#DejaVuSans-20" x="558.931641"/>
      <use xlink:href="#DejaVuSans-28" x="590.71875"/>
      <use xlink:href="#DejaVuSans-4d" x="629.732422"/>
      <use xlink:href="#DejaVuSans-20" x="716.011719"/>
      <use xlink:href="#DejaVuSans-6d" x="747.798828"/>
      <use xlink:href="#DejaVuSans-73" x="845.210938"/>
      <use xlink:href="#DejaVuSans-67" x="897.310547"/>
      <use xlink:href="#DejaVuSans-73" x="960.787109"/>
      <use xlink:href="#DejaVuSans-2f" x="1012.886719"/>
      <use xlink:href="#DejaVuSans-73" x="1046.578125"/>
      <use xlink:href="#DejaVuSans-65" x="1098.677734"/>
      <use xlink:href="#DejaVuSans-63" x="1160.201172"/>
      <use xlink:href="#DejaVuSans-2c" x="1215.181641"/>
      <use xlink:href="#DejaVuSans-20" x="1246.96875"/>
      <use xlink:href="#DejaVuSans-6c" x="1278.755859"/>
      <use xlink:href="#DejaVuSans-6f" x="1306.539062"/>
      <use xlink:href="#DejaVuSans-67" x="1367.720703"/>
      <use xlink:href="#DejaVuSans-20" x="1431.197266"/>
      <use xlink:href="#DejaVuSans-73" x="1462.984375"/>
      <use xlink:href="#DejaVuSans-63" x="1515.083984"/>
      <use xlink:href="#DejaVuSans-61" x="1570.064453"/>
      <use xlink:href="#DejaVuSans-6c" x="1631.34375"/>
      <use xlink:href="#DejaVuSans-65" x="1659.126953"/>
      <use xlink:href="#DejaVuSans-29" x="1720.650391"/>
     </g>
    </g>
   </g>
   <g id="line2d_47">
    <path d="M 73.4327 50.698545 
L 229.549303 100.488017 
L 385.665906 173.403196 
L 541.78251 291.725872 
" clip-path="url(#p2242d06859)" style="fill: none; stroke: #9aa0a6; stroke-width: 2; stroke-linecap: square"/>
    <defs>
     <path id="m41fc72dd50" d="M -3 3 
L 3 3 
L 3 -3 
L -3 -3 
z
" style="stroke: #9aa0a6; stroke-linejoin: miter"/>
    </defs>
    <g clip-path="url(#p2242d06859)">
     <use xlink:href="#m41fc72dd50" x="73.4327" y="50.698545" style="fill: #9aa0a6; stroke: #9aa0a6; stroke-linejoin: miter"/>
     <use xlink:href="#m41fc72dd50" x="229.549303" y="100.488017" style="fill: #9aa0a6; stroke: #9aa0a6; stroke-linejoin: miter"/>
     <use xlink:href="#m41fc72dd50" x="385.665906" y="173.403196" style="fill: #9aa0a6; stroke: #9aa0a6; stroke-linejoin: miter"/>
     <use xlink:href="#m41fc72dd50" x="541.78251" y="291.725872" style="fill: #9aa0a6; stroke: #9aa0a6; stroke-linejoin: miter"/>
    </g>
   </g>
   <g id="line2d_48">
    <path d="M 73.4327 158.161386 
L 229.549303 186.211792 
L 385.665906 205.124619 
L 541.78251 298.521166 
" clip-path="url(#p2242d06859)" style="fill: none; stroke: #1a73e8; stroke-width: 2.5; stroke-linecap: square"/>
    <defs>
     <path id="me86486da98" d="M 0 3 
C 0.795609 3 1.55874 2.683901 2.12132 2.12132 
C 2.683901 1.55874 3 0.795609 3 0 
C 3 -0.795609 2.683901 -1.55874 2.12132 -2.12132 
C 1.55874 -2.683901 0.795609 -3 0 -3 
C -0.795609 -3 -1.55874 -2.683901 -2.12132 -2.12132 
C -2.683901 -1.55874 -3 -0.795609 -3 0 
C -3 0.795609 -2.683901 1.55874 -2.12132 2.12132 
C -1.55874 2.683901 -0.795609 3 0 3 
z
" style="stroke: #1a73e8"/>
    </defs>
    <g clip-path="url(#p2242d06859)">
     <use xlink:href="#me86486da98" x="73.4327" y="158.161386" style="fill: #1a73e8; stroke: #1a73e8"/>
     <use xlink:href="#me86486da98" x="229.549303" y="186.211792" style="fill: #1a73e8; stroke: #1a73e8"/>
     <use xlink:href="#me86486da98" x="385.665906" y="205.124619" style="fill: #1a73e8; stroke: #1a73e8"/>
     <use xlink:href="#me86486da98" x="541.78251" y="298.521166" style="fill: #1a73e8; stroke: #1a73e8"/>
    </g>
   </g>
   <g id="line2d_49">
    <path d="M 50.015209 305.309455 
L 565.2 305.309455 
" clip-path="url(#p2242d06859)" style="fill: none; stroke-dasharray: 4.81,2.08; stroke-dashoffset: 0; stroke: #d93025; stroke-width: 1.3"/>
   </g>
   <g id="patch_3">
    <path d="M 50.015209 318.04 
L 50.015209 37.968 
" style="fill: none; stroke: #000000; stroke-width: 0.8; stroke-linejoin: miter; stroke-linecap: square"/>
   </g>
   <g id="patch_4">
    <path d="M 565.2 318.04 
L 565.2 37.968 
" style="fill: none; stroke: #000000; stroke-width: 0.8; stroke-linejoin: miter; stroke-linecap: square"/>
   </g>
   <g id="patch_5">
    <path d="M 50.015209 318.04 
L 565.2 318.04 
" style="fill: none; stroke: #000000; stroke-width: 0.8; stroke-linejoin: miter; stroke-linecap: square"/>
   </g>
   <g id="patch_6">
    <path d="M 50.015209 37.968 
L 565.2 37.968 
" style="fill: none; stroke: #000000; stroke-width: 0.8; stroke-linejoin: miter; stroke-linecap: square"/>
   </g>
   <g id="text_10">
    <!-- DESIGN §5 target ≥ 10M msgs/sec -->
    <g style="fill: #d93025" transform="translate(386.373603 291.344635) scale(0.09 -0.09)">
     <defs>
      <path id="DejaVuSans-44" d="M 1259 4147 
L 1259 519 
L 2022 519 
Q 2988 519 3436 956 
Q 3884 1394 3884 2338 
Q 3884 3275 3436 3711 
Q 2988 4147 2022 4147 
L 1259 4147 
z
M 628 4666 
L 1925 4666 
Q 3281 4666 3915 4102 
Q 4550 3538 4550 2338 
Q 4550 1131 3912 565 
Q 3275 0 1925 0 
L 628 0 
L 628 4666 
z
" transform="scale(0.015625)"/>
      <path id="DejaVuSans-45" d="M 628 4666 
L 3578 4666 
L 3578 4134 
L 1259 4134 
L 1259 2753 
L 3481 2753 
L 3481 2222 
L 1259 2222 
L 1259 531 
L 3634 531 
L 3634 0 
L 628 0 
L 628 4666 
z
" transform="scale(0.015625)"/>
      <path id="DejaVuSans-53" d="M 3425 4513 
L 3425 3897 
Q 3066 4069 2747 4153 
Q 2428 4238 2131 4238 
Q 1616 4238 1336 4038 
Q 1056 3838 1056 3469 
Q 1056 3159 1242 3001 
Q 1428 2844 1947 2747 
L 2328 2669 
Q 3034 2534 3370 2195 
Q 3706 1856 3706 1288 
Q 3706 609 3251 259 
Q 2797 -91 1919 -91 
Q 1588 -91 1214 -16 
Q 841 59 441 206 
L 441 856 
Q 825 641 1194 531 
Q 1563 422 1919 422 
Q 2459 422 2753 634 
Q 3047 847 3047 1241 
Q 3047 1584 2836 1778 
Q 2625 1972 2144 2069 
L 1759 2144 
Q 1053 2284 737 2584 
Q 422 2884 422 3419 
Q 422 4038 858 4394 
Q 1294 4750 2059 4750 
Q 2388 4750 2728 4690 
Q 3069 4631 3425 4513 
z
" transform="scale(0.015625)"/>
      <path id="DejaVuSans-49" d="M 628 4666 
L 1259 4666 
L 1259 0 
L 628 0 
L 628 4666 
z
" transform="scale(0.015625)"/>
      <path id="DejaVuSans-47" d="M 3809 666 
L 3809 1919 
L 2778 1919 
L 2778 2438 
L 4434 2438 
L 4434 434 
Q 4069 175 3628 42 
Q 3188 -91 2688 -91 
Q 1594 -91 976 548 
Q 359 1188 359 2328 
Q 359 3472 976 4111 
Q 1594 4750 2688 4750 
Q 3144 4750 3555 4637 
Q 3966 4525 4313 4306 
L 4313 3634 
Q 3963 3931 3569 4081 
Q 3175 4231 2741 4231 
Q 1884 4231 1454 3753 
Q 1025 3275 1025 2328 
Q 1025 1384 1454 906 
Q 1884 428 2741 428 
Q 3075 428 3337 486 
Q 3600 544 3809 666 
z
" transform="scale(0.015625)"/>
      <path id="DejaVuSans-4e" d="M 628 4666 
L 1478 4666 
L 3547 763 
L 3547 4666 
L 4159 4666 
L 4159 0 
L 3309 0 
L 1241 3903 
L 1241 0 
L 628 0 
L 628 4666 
z
" transform="scale(0.015625)"/>
      <path id="DejaVuSans-a7" d="M 1184 2925 
Q 988 2781 891 2640 
Q 794 2500 794 2356 
Q 794 2119 1011 1911 
Q 1228 1703 2009 1281 
Q 2206 1422 2303 1564 
Q 2400 1706 2400 1850 
Q 2400 2084 2176 2296 
Q 1953 2509 1184 2925 
z
M 2591 4569 
L 2591 4056 
Q 2331 4178 2107 4239 
Q 1884 4300 1709 4300 
Q 1406 4300 1237 4175 
Q 1069 4050 1069 3828 
Q 1069 3547 1713 3188 
Q 1794 3141 1838 3116 
Q 2497 2744 2701 2503 
Q 2906 2263 2906 1947 
Q 2906 1666 2762 1447 
Q 2619 1228 2328 1063 
Q 2522 900 2611 729 
Q 2700 559 2700 359 
Q 2700 -84 2381 -346 
Q 2063 -609 1522 -609 
Q 1294 -609 1053 -564 
Q 813 -519 538 -428 
L 538 84 
Q 809 -38 1040 -98 
Q 1272 -159 1453 -159 
Q 1772 -159 1948 -28 
Q 2125 103 2125 341 
Q 2125 659 1434 1044 
L 1356 1088 
Q 688 1463 488 1702 
Q 288 1941 288 2259 
Q 288 2544 433 2767 
Q 578 2991 863 3144 
Q 678 3281 586 3456 
Q 494 3631 494 3847 
Q 494 4253 806 4501 
Q 1119 4750 1638 4750 
Q 1866 4750 2105 4704 
Q 2344 4659 2591 4569 
z
" transform="scale(0.015625)"/>
      <path id="DejaVuSans-2265" d="M 678 3175 
L 678 3725 
L 4684 2578 
L 4684 2047 
L 678 897 
L 678 1453 
L 3681 2309 
L 678 3175 
z
M 4684 531 
L 4684 0 
L 678 0 
L 678 531 
L 4684 531 
z
" transform="scale(0.015625)"/>
     </defs>
     <use xlink:href="#DejaVuSans-44"/>
     <use xlink:href="#DejaVuSans-45" x="77.001953"/>
     <use xlink:href="#DejaVuSans-53" x="140.185547"/>
     <use xlink:href="#DejaVuSans-49" x="203.662109"/>
     <use xlink:href="#DejaVuSans-47" x="233.154297"/>
     <use xlink:href="#DejaVuSans-4e" x="310.644531"/>
     <use xlink:href="#DejaVuSans-20" x="385.449219"/>
     <use xlink:href="#DejaVuSans-a7" x="417.236328"/>
     <use xlink:href="#DejaVuSans-35" x="467.236328"/>
     <use xlink:href="#DejaVuSans-20" x="530.859375"/>
     <use xlink:href="#DejaVuSans-74" x="562.646484"/>
     <use xlink:href="#DejaVuSans-61" x="601.855469"/>
     <use xlink:href="#DejaVuSans-72" x="663.134766"/>
     <use xlink:href="#DejaVuSans-67" x="702.498047"/>
     <use xlink:href="#DejaVuSans-65" x="765.974609"/>
     <use xlink:href="#DejaVuSans-74" x="827.498047"/>
     <use xlink:href="#DejaVuSans-20" x="866.707031"/>
     <use xlink:href="#DejaVuSans-2265" x="898.494141"/>
     <use xlink:href="#DejaVuSans-20" x="982.283203"/>
     <use xlink:href="#DejaVuSans-31" x="1014.070312"/>
     <use xlink:href="#DejaVuSans-30" x="1077.693359"/>
     <use xlink:href="#DejaVuSans-4d" x="1141.316406"/>
     <use xlink:href="#DejaVuSans-20" x="1227.595703"/>
     <use xlink:href="#DejaVuSans-6d" x="1259.382812"/>
     <use xlink:href="#DejaVuSans-73" x="1356.794922"/>
     <use xlink:href="#DejaVuSans-67" x="1408.894531"/>
     <use xlink:href="#DejaVuSans-73" x="1472.371094"/>
     <use xlink:href="#DejaVuSans-2f" x="1524.470703"/>
     <use xlink:href="#DejaVuSans-73" x="1558.162109"/>
     <use xlink:href="#DejaVuSans-65" x="1610.261719"/>
     <use xlink:href="#DejaVuSans-63" x="1671.785156"/>
    </g>
   </g>
   <g id="text_11">
    <!-- 151M msgs/s -->
    <g style="fill: #1a73e8" transform="translate(96.85019 126.306718) scale(0.09 -0.09)">
     <use xlink:href="#DejaVuSans-31"/>
     <use xlink:href="#DejaVuSans-35" x="63.623047"/>
     <use xlink:href="#DejaVuSans-31" x="127.246094"/>
     <use xlink:href="#DejaVuSans-4d" x="190.869141"/>
     <use xlink:href="#DejaVuSans-20" x="277.148438"/>
     <use xlink:href="#DejaVuSans-6d" x="308.935547"/>
     <use xlink:href="#DejaVuSans-73" x="406.347656"/>
     <use xlink:href="#DejaVuSans-67" x="458.447266"/>
     <use xlink:href="#DejaVuSans-73" x="521.923828"/>
     <use xlink:href="#DejaVuSans-2f" x="574.023438"/>
     <use xlink:href="#DejaVuSans-73" x="607.714844"/>
    </g>
   </g>
   <g id="patch_7">
    <path d="M 459.517072 260.399781 
Q 499.74223 279.039915 538.952976 297.209975 
" style="fill: none; stroke: #999999; stroke-linecap: round"/>
    <path d="M 536.582855 294.238018 
L 538.952976 297.209975 
L 535.153338 297.322897 
" style="fill: none; stroke: #999999; stroke-linecap: round"/>
   </g>
   <g id="text_12">
    <!-- bandwidth-bound -->
    <g style="fill: #555555" transform="translate(393.471736 246.273157) scale(0.085 -0.085)">
     <defs>
      <path id="DejaVuSans-6e" d="M 3513 2113 
L 3513 0 
L 2938 0 
L 2938 2094 
Q 2938 2591 2744 2837 
Q 2550 3084 2163 3084 
Q 1697 3084 1428 2787 
Q 1159 2491 1159 1978 
L 1159 0 
L 581 0 
L 581 3500 
L 1159 3500 
L 1159 2956 
Q 1366 3272 1645 3428 
Q 1925 3584 2291 3584 
Q 2894 3584 3203 3211 
Q 3513 2838 3513 2113 
z
" transform="scale(0.015625)"/>
      <path id="DejaVuSans-64" d="M 2906 2969 
L 2906 4863 
L 3481 4863 
L 3481 0 
L 2906 0 
L 2906 525 
Q 2725 213 2448 61 
Q 2172 -91 1784 -91 
Q 1150 -91 751 415 
Q 353 922 353 1747 
Q 353 2572 751 3078 
Q 1150 3584 1784 3584 
Q 2172 3584 2448 3432 
Q 2725 3281 2906 2969 
z
M 947 1747 
Q 947 1113 1208 752 
Q 1469 391 1925 391 
Q 2381 391 2643 752 
Q 2906 1113 2906 1747 
Q 2906 2381 2643 2742 
Q 2381 3103 1925 3103 
Q 1469 3103 1208 2742 
Q 947 2381 947 1747 
z
" transform="scale(0.015625)"/>
      <path id="DejaVuSans-77" d="M 269 3500 
L 844 3500 
L 1563 769 
L 2278 3500 
L 2956 3500 
L 3675 769 
L 4391 3500 
L 4966 3500 
L 4050 0 
L 3372 0 
L 2619 2869 
L 1863 0 
L 1184 0 
L 269 3500 
z
" transform="scale(0.015625)"/>
      <path id="DejaVuSans-2d" d="M 313 2009 
L 1997 2009 
L 1997 1497 
L 313 1497 
L 313 2009 
z
" transform="scale(0.015625)"/>
     </defs>
     <use xlink:href="#DejaVuSans-62"/>
     <use xlink:href="#DejaVuSans-61" x="63.476562"/>
     <use xlink:href="#DejaVuSans-6e" x="124.755859"/>
     <use xlink:href="#DejaVuSans-64" x="188.134766"/>
     <use xlink:href="#DejaVuSans-77" x="251.611328"/>
     <use xlink:href="#DejaVuSans-69" x="333.398438"/>
     <use xlink:href="#DejaVuSans-64" x="361.181641"/>
     <use xlink:href="#DejaVuSans-74" x="424.658203"/>
     <use xlink:href="#DejaVuSans-68" x="463.867188"/>
     <use xlink:href="#DejaVuSans-2d" x="527.246094"/>
     <use xlink:href="#DejaVuSans-62" x="563.330078"/>
     <use xlink:href="#DejaVuSans-6f" x="626.806641"/>
     <use xlink:href="#DejaVuSans-75" x="687.988281"/>
     <use xlink:href="#DejaVuSans-6e" x="751.367188"/>
     <use xlink:href="#DejaVuSans-64" x="814.746094"/>
    </g>
    <!-- @4KB ≈ 43.2 GiB/s -->
    <g style="fill: #555555" transform="translate(393.471736 255.791298) scale(0.085 -0.085)">
     <defs>
      <path id="DejaVuSans-40" d="M 2381 1678 
Q 2381 1231 2603 976 
Q 2825 722 3213 722 
Q 3597 722 3817 978 
Q 4038 1234 4038 1678 
Q 4038 2116 3813 2373 
Q 3588 2631 3206 2631 
Q 2828 2631 2604 2375 
Q 2381 2119 2381 1678 
z
M 4084 744 
Q 3897 503 3655 389 
Q 3413 275 3091 275 
Q 2553 275 2217 664 
Q 1881 1053 1881 1678 
Q 1881 2303 2218 2693 
Q 2556 3084 3091 3084 
Q 3413 3084 3656 2967 
Q 3900 2850 4084 2613 
L 4084 3022 
L 4531 3022 
L 4531 722 
Q 4988 791 5245 1139 
Q 5503 1488 5503 2041 
Q 5503 2375 5404 2669 
Q 5306 2963 5106 3213 
Q 4781 3622 4314 3839 
Q 3847 4056 3297 4056 
Q 2913 4056 2559 3954 
Q 2206 3853 1906 3653 
Q 1416 3334 1139 2817 
Q 863 2300 863 1697 
Q 863 1200 1042 765 
Q 1222 331 1563 0 
Q 1891 -325 2322 -495 
Q 2753 -666 3244 -666 
Q 3647 -666 4036 -530 
Q 4425 -394 4750 -141 
L 5031 -488 
Q 4641 -791 4180 -952 
Q 3719 -1113 3244 -1113 
Q 2666 -1113 2153 -908 
Q 1641 -703 1241 -313 
Q 841 78 631 592 
Q 422 1106 422 1697 
Q 422 2266 634 2781 
Q 847 3297 1241 3688 
Q 1644 4084 2172 4295 
Q 2700 4506 3291 4506 
Q 3953 4506 4520 4234 
Q 5088 3963 5472 3463 
Q 5706 3156 5829 2797 
Q 5953 2438 5953 2053 
Q 5953 1231 5456 756 
Q 4959 281 4084 263 
L 4084 744 
z
" transform="scale(0.015625)"/>
      <path id="DejaVuSans-2248" d="M 4684 1947 
L 4684 1388 
Q 4356 1144 4076 1036 
Q 3797 928 3494 928 
Q 3150 928 2694 1113 
Q 2663 1125 2641 1134 
Q 2622 1141 2575 1159 
Q 2091 1350 1797 1350 
Q 1522 1350 1253 1231 
Q 984 1113 678 850 
L 678 1409 
Q 1006 1653 1286 1761 
Q 1566 1869 1869 1869 
Q 2213 1869 2672 1684 
Q 2706 1669 2722 1663 
Q 2741 1656 2788 1638 
Q 3272 1447 3566 1447 
Q 3834 1447 4098 1564 
Q 4363 1681 4684 1947 
z
M 4684 3163 
L 4684 2606 
Q 4356 2359 4076 2251 
Q 3797 2144 3494 2144 
Q 3150 2144 2694 2328 
Q 2663 2341 2641 2350 
Q 2622 2356 2575 2375 
Q 2091 2566 1797 2566 
Q 1522 2566 1253 2447 
Q 984 2328 678 2069 
L 678 2625 
Q 1006 2869 1286 2976 
Q 1566 3084 1869 3084 
Q 2213 3084 2672 2900 
Q 2703 2888 2719 2881 
Q 2741 2872 2788 2853 
Q 3272 2663 3566 2663 
Q 3834 2663 4098 2780 
Q 4363 2897 4684 3163 
z
" transform="scale(0.015625)"/>
      <path id="DejaVuSans-2e" d="M 684 794 
L 1344 794 
L 1344 0 
L 684 0 
L 684 794 
z
" transform="scale(0.015625)"/>
     </defs>
     <use xlink:href="#DejaVuSans-40"/>
     <use xlink:href="#DejaVuSans-34" x="100"/>
     <use xlink:href="#DejaVuSans-4b" x="163.623047"/>
     <use xlink:href="#DejaVuSans-42" x="229.199219"/>
     <use xlink:href="#DejaVuSans-20" x="297.802734"/>
     <use xlink:href="#DejaVuSans-2248" x="329.589844"/>
     <use xlink:href="#DejaVuSans-20" x="413.378906"/>
     <use xlink:href="#DejaVuSans-34" x="445.166016"/>
     <use xlink:href="#DejaVuSans-33" x="508.789062"/>
     <use xlink:href="#DejaVuSans-2e" x="572.412109"/>
     <use xlink:href="#DejaVuSans-32" x="604.199219"/>
     <use xlink:href="#DejaVuSans-20" x="667.822266"/>
     <use xlink:href="#DejaVuSans-47" x="699.609375"/>
     <use xlink:href="#DejaVuSans-69" x="777.099609"/>
     <use xlink:href="#DejaVuSans-42" x="804.882812"/>
     <use xlink:href="#DejaVuSans-2f" x="873.486328"/>
     <use xlink:href="#DejaVuSans-73" x="907.177734"/>
    </g>
   </g>
   <g id="text_13">
    <!-- shimmy throughput vs message size -->
    <g transform="translate(197.334167 18.530625) scale(0.12 -0.12)">
     <defs>
      <path id="DejaVuSans-79" d="M 2059 -325 
Q 1816 -950 1584 -1140 
Q 1353 -1331 966 -1331 
L 506 -1331 
L 506 -850 
L 844 -850 
Q 1081 -850 1212 -737 
Q 1344 -625 1503 -206 
L 1606 56 
L 191 3500 
L 800 3500 
L 1894 763 
L 2988 3500 
L 3597 3500 
L 2059 -325 
z
" transform="scale(0.015625)"/>
      <path id="DejaVuSans-76" d="M 191 3500 
L 800 3500 
L 1894 563 
L 2988 3500 
L 3597 3500 
L 2284 0 
L 1503 0 
L 191 3500 
z
" transform="scale(0.015625)"/>
     </defs>
     <use xlink:href="#DejaVuSans-73"/>
     <use xlink:href="#DejaVuSans-68" x="52.099609"/>
     <use xlink:href="#DejaVuSans-69" x="115.478516"/>
     <use xlink:href="#DejaVuSans-6d" x="143.261719"/>
     <use xlink:href="#DejaVuSans-6d" x="240.673828"/>
     <use xlink:href="#DejaVuSans-79" x="338.085938"/>
     <use xlink:href="#DejaVuSans-20" x="397.265625"/>
     <use xlink:href="#DejaVuSans-74" x="429.052734"/>
     <use xlink:href="#DejaVuSans-68" x="468.261719"/>
     <use xlink:href="#DejaVuSans-72" x="531.640625"/>
     <use xlink:href="#DejaVuSans-6f" x="570.503906"/>
     <use xlink:href="#DejaVuSans-75" x="631.685547"/>
     <use xlink:href="#DejaVuSans-67" x="695.064453"/>
     <use xlink:href="#DejaVuSans-68" x="758.541016"/>
     <use xlink:href="#DejaVuSans-70" x="821.919922"/>
     <use xlink:href="#DejaVuSans-75" x="885.396484"/>
     <use xlink:href="#DejaVuSans-74" x="948.775391"/>
     <use xlink:href="#DejaVuSans-20" x="987.984375"/>
     <use xlink:href="#DejaVuSans-76" x="1019.771484"/>
     <use xlink:href="#DejaVuSans-73" x="1078.951172"/>
     <use xlink:href="#DejaVuSans-20" x="1131.050781"/>
     <use xlink:href="#DejaVuSans-6d" x="1162.837891"/>
     <use xlink:href="#DejaVuSans-65" x="1260.25"/>
     <use xlink:href="#DejaVuSans-73" x="1321.773438"/>
     <use xlink:href="#DejaVuSans-73" x="1373.873047"/>
     <use xlink:href="#DejaVuSans-61" x="1425.972656"/>
     <use xlink:href="#DejaVuSans-67" x="1487.251953"/>
     <use xlink:href="#DejaVuSans-65" x="1550.728516"/>
     <use xlink:href="#DejaVuSans-20" x="1612.251953"/>
     <use xlink:href="#DejaVuSans-73" x="1644.039062"/>
     <use xlink:href="#DejaVuSans-69" x="1696.138672"/>
     <use xlink:href="#DejaVuSans-7a" x="1723.921875"/>
     <use xlink:href="#DejaVuSans-65" x="1776.412109"/>
    </g>
    <!-- single producer, Overwrite policy, Spin readers -->
    <g transform="translate(166.55323 31.968) scale(0.12 -0.12)">
     <defs>
      <path id="DejaVuSans-4f" d="M 2522 4238 
Q 1834 4238 1429 3725 
Q 1025 3213 1025 2328 
Q 1025 1447 1429 934 
Q 1834 422 2522 422 
Q 3209 422 3611 934 
Q 4013 1447 4013 2328 
Q 4013 3213 3611 3725 
Q 3209 4238 2522 4238 
z
M 2522 4750 
Q 3503 4750 4090 4092 
Q 4678 3434 4678 2328 
Q 4678 1225 4090 567 
Q 3503 -91 2522 -91 
Q 1538 -91 948 565 
Q 359 1222 359 2328 
Q 359 3434 948 4092 
Q 1538 4750 2522 4750 
z
" transform="scale(0.015625)"/>
     </defs>
     <use xlink:href="#DejaVuSans-73"/>
     <use xlink:href="#DejaVuSans-69" x="52.099609"/>
     <use xlink:href="#DejaVuSans-6e" x="79.882812"/>
     <use xlink:href="#DejaVuSans-67" x="143.261719"/>
     <use xlink:href="#DejaVuSans-6c" x="206.738281"/>
     <use xlink:href="#DejaVuSans-65" x="234.521484"/>
     <use xlink:href="#DejaVuSans-20" x="296.044922"/>
     <use xlink:href="#DejaVuSans-70" x="327.832031"/>
     <use xlink:href="#DejaVuSans-72" x="391.308594"/>
     <use xlink:href="#DejaVuSans-6f" x="430.171875"/>
     <use xlink:href="#DejaVuSans-64" x="491.353516"/>
     <use xlink:href="#DejaVuSans-75" x="554.830078"/>
     <use xlink:href="#DejaVuSans-63" x="618.208984"/>
     <use xlink:href="#DejaVuSans-65" x="673.189453"/>
     <use xlink:href="#DejaVuSans-72" x="734.712891"/>
     <use xlink:href="#DejaVuSans-2c" x="775.826172"/>
     <use xlink:href="#DejaVuSans-20" x="807.613281"/>
     <use xlink:href="#DejaVuSans-4f" x="839.400391"/>
     <use xlink:href="#DejaVuSans-76" x="918.111328"/>
     <use xlink:href="#DejaVuSans-65" x="977.291016"/>
     <use xlink:href="#DejaVuSans-72" x="1038.814453"/>
     <use xlink:href="#DejaVuSans-77" x="1079.927734"/>
     <use xlink:href="#DejaVuSans-72" x="1161.714844"/>
     <use xlink:href="#DejaVuSans-69" x="1202.828125"/>
     <use xlink:href="#DejaVuSans-74" x="1230.611328"/>
     <use xlink:href="#DejaVuSans-65" x="1269.820312"/>
     <use xlink:href="#DejaVuSans-20" x="1331.34375"/>
     <use xlink:href="#DejaVuSans-70" x="1363.130859"/>
     <use xlink:href="#DejaVuSans-6f" x="1426.607422"/>
     <use xlink:href="#DejaVuSans-6c" x="1487.789062"/>
     <use xlink:href="#DejaVuSans-69" x="1515.572266"/>
     <use xlink:href="#DejaVuSans-63" x="1543.355469"/>
     <use xlink:href="#DejaVuSans-79" x="1598.335938"/>
     <use xlink:href="#DejaVuSans-2c" x="1657.515625"/>
     <use xlink:href="#DejaVuSans-20" x="1689.302734"/>
     <use xlink:href="#DejaVuSans-53" x="1721.089844"/>
     <use xlink:href="#DejaVuSans-70" x="1784.566406"/>
     <use xlink:href="#DejaVuSans-69" x="1848.042969"/>
     <use xlink:href="#DejaVuSans-6e" x="1875.826172"/>
     <use xlink:href="#DejaVuSans-20" x="1939.205078"/>
     <use xlink:href="#DejaVuSans-72" x="1970.992188"/>
     <use xlink:href="#DejaVuSans-65" x="2009.855469"/>
     <use xlink:href="#DejaVuSans-61" x="2071.378906"/>
     <use xlink:href="#DejaVuSans-64" x="2132.658203"/>
     <use xlink:href="#DejaVuSans-65" x="2196.134766"/>
     <use xlink:href="#DejaVuSans-72" x="2257.658203"/>
     <use xlink:href="#DejaVuSans-73" x="2298.771484"/>
    </g>
   </g>
   <g id="legend_1">
    <g id="patch_8">
     <path d="M 57.015209 313.04 
L 262.143334 313.04 
Q 264.143334 313.04 264.143334 311.04 
L 264.143334 282.68375 
Q 264.143334 280.68375 262.143334 280.68375 
L 57.015209 280.68375 
Q 55.015209 280.68375 55.015209 282.68375 
L 55.015209 311.04 
Q 55.015209 313.04 57.015209 313.04 
z
" style="fill: #ffffff; opacity: 0.95; stroke: #cccccc; stroke-linejoin: miter"/>
    </g>
    <g id="line2d_50">
     <path d="M 59.015209 288.782188 
L 69.015209 288.782188 
L 79.015209 288.782188 
" style="fill: none; stroke: #9aa0a6; stroke-width: 2; stroke-linecap: square"/>
     <g>
      <use xlink:href="#m41fc72dd50" x="69.015209" y="288.782188" style="fill: #9aa0a6; stroke: #9aa0a6; stroke-linejoin: miter"/>
     </g>
    </g>
    <g id="text_14">
     <!-- 0 consumers (pure publish ceiling) -->
     <g transform="translate(87.015209 292.282188) scale(0.1 -0.1)">
      <use xlink:href="#DejaVuSans-30"/>
      <use xlink:href="#DejaVuSans-20" x="63.623047"/>
      <use xlink:href="#DejaVuSans-63" x="95.410156"/>
      <use xlink:href="#DejaVuSans-6f" x="150.390625"/>
      <use xlink:href="#DejaVuSans-6e" x="211.572266"/>
      <use xlink:href="#DejaVuSans-73" x="274.951172"/>
      <use xlink:href="#DejaVuSans-75" x="327.050781"/>
      <use xlink:href="#DejaVuSans-6d" x="390.429688"/>
      <use xlink:href="#DejaVuSans-65" x="487.841797"/>
      <use xlink:href="#DejaVuSans-72" x="549.365234"/>
      <use xlink:href="#DejaVuSans-73" x="590.478516"/>
      <use xlink:href="#DejaVuSans-20" x="642.578125"/>
      <use xlink:href="#DejaVuSans-28" x="674.365234"/>
      <use xlink:href="#DejaVuSans-70" x="713.378906"/>
      <use xlink:href="#DejaVuSans-75" x="776.855469"/>
      <use xlink:href="#DejaVuSans-72" x="840.234375"/>
      <use xlink:href="#DejaVuSans-65" x="879.097656"/>
      <use xlink:href="#DejaVuSans-20" x="940.621094"/>
      <use xlink:href="#DejaVuSans-70" x="972.408203"/>
      <use xlink:href="#DejaVuSans-75" x="1035.884766"/>
      <use xlink:href="#DejaVuSans-62" x="1099.263672"/>
      <use xlink:href="#DejaVuSans-6c" x="1162.740234"/>
      <use xlink:href="#DejaVuSans-69" x="1190.523438"/>
      <use xlink:href="#DejaVuSans-73" x="1218.306641"/>
      <use xlink:href="#DejaVuSans-68" x="1270.40625"/>
      <use xlink:href="#DejaVuSans-20" x="1333.785156"/>
      <use xlink:href="#DejaVuSans-63" x="1365.572266"/>
      <use xlink:href="#DejaVuSans-65" x="1420.552734"/>
      <use xlink:href="#DejaVuSans-69" x="1482.076172"/>
      <use xlink:href="#DejaVuSans-6c" x="1509.859375"/>
      <use xlink:href="#DejaVuSans-69" x="1537.642578"/>
      <use xlink:href="#DejaVuSans-6e" x="1565.425781"/>
      <use xlink:href="#DejaVuSans-67" x="1628.804688"/>
      <use xlink:href="#DejaVuSans-29" x="1692.28125"/>
     </g>
    </g>
    <g id="line2d_51">
     <path d="M 59.015209 303.460313 
L 69.015209 303.460313 
L 79.015209 303.460313 
" style="fill: none; stroke: #1a73e8; stroke-width: 2.5; stroke-linecap: square"/>
     <g>
      <use xlink:href="#me86486da98" x="69.015209" y="303.460313" style="fill: #1a73e8; stroke: #1a73e8"/>
     </g>
    </g>
    <g id="text_15">
     <!-- 1 consumer (headline fan-out) -->
     <g transform="translate(87.015209 306.960313) scale(0.1 -0.1)">
      <defs>
       <path id="DejaVuSans-66" d="M 2375 4863 
L 2375 4384 
L 1825 4384 
Q 1516 4384 1395 4259 
Q 1275 4134 1275 3809 
L 1275 3500 
L 2222 3500 
L 2222 3053 
L 1275 3053 
L 1275 0 
L 697 0 
L 697 3053 
L 147 3053 
L 147 3500 
L 697 3500 
L 697 3744 
Q 697 4328 969 4595 
Q 1241 4863 1831 4863 
L 2375 4863 
z
" transform="scale(0.015625)"/>
      </defs>
      <use xlink:href="#DejaVuSans-31"/>
      <use xlink:href="#DejaVuSans-20" x="63.623047"/>
      <use xlink:href="#DejaVuSans-63" x="95.410156"/>
      <use xlink:href="#DejaVuSans-6f" x="150.390625"/>
      <use xlink:href="#DejaVuSans-6e" x="211.572266"/>
      <use xlink:href="#DejaVuSans-73" x="274.951172"/>
      <use xlink:href="#DejaVuSans-75" x="327.050781"/>
      <use xlink:href="#DejaVuSans-6d" x="390.429688"/>
      <use xlink:href="#DejaVuSans-65" x="487.841797"/>
      <use xlink:href="#DejaVuSans-72" x="549.365234"/>
      <use xlink:href="#DejaVuSans-20" x="590.478516"/>
      <use xlink:href="#DejaVuSans-28" x="622.265625"/>
      <use xlink:href="#DejaVuSans-68" x="661.279297"/>
      <use xlink:href="#DejaVuSans-65" x="724.658203"/>
      <use xlink:href="#DejaVuSans-61" x="786.181641"/>
      <use xlink:href="#DejaVuSans-64" x="847.460938"/>
      <use xlink:href="#DejaVuSans-6c" x="910.9375"/>
      <use xlink:href="#DejaVuSans-69" x="938.720703"/>
      <use xlink:href="#DejaVuSans-6e" x="966.503906"/>
      <use xlink:href="#DejaVuSans-65" x="1029.882812"/>
      <use xlink:href="#DejaVuSans-20" x="1091.40625"/>
      <use xlink:href="#DejaVuSans-66" x="1123.193359"/>
      <use xlink:href="#DejaVuSans-61" x="1158.398438"/>
      <use xlink:href="#DejaVuSans-6e" x="1219.677734"/>
      <use xlink:href="#DejaVuSans-2d" x="1283.056641"/>
      <use xlink:href="#DejaVuSans-6f" x="1321.015625"/>
      <use xlink:href="#DejaVuSans-75" x="1382.197266"/>
      <use xlink:href="#DejaVuSans-74" x="1445.576172"/>
      <use xlink:href="#DejaVuSans-29" x="1484.785156"/>
     </g>
    </g>
   </g>
  </g>
 </g>
 <defs>
  <clipPath id="p2242d06859">
   <rect x="50.015209" y="37.968" width="515.184791" height="280.072"/>
  </clipPath>
 </defs>
</svg>
